<svg width="16" height="16" viewBox="0 0 16 16" fill="none" xmlns="http://www.w3.org/2000/svg">
<path d="M8.00293 3.33301C8.17987 3.33301 8.35047 3.4033 8.47559 3.52832C8.60038 3.65321 8.67078 3.82253 8.6709 3.99902V10.666L10.8584 8.47266C10.9202 8.4105 10.9943 8.36096 11.0752 8.32715C11.1559 8.29345 11.2426 8.2757 11.3301 8.27539C11.4177 8.27508 11.5048 8.29196 11.5859 8.3252C11.667 8.35843 11.7405 8.40801 11.8027 8.46973C11.8649 8.53143 11.9144 8.60477 11.9482 8.68555C11.982 8.76631 11.9997 8.85289 12 8.94043C12.0003 9.02803 11.9835 9.11524 11.9502 9.19629C11.9169 9.27722 11.8674 9.351 11.8057 9.41309L8.9375 12.2725C8.69006 12.5212 8.35392 12.6628 8.00293 12.666C7.6498 12.6644 7.31147 12.5227 7.0625 12.2725L4.19434 9.41309C4.07008 9.28818 4 9.11851 4 8.94238C4.00011 8.76641 4.07018 8.59747 4.19434 8.47266C4.25629 8.4103 4.32997 8.36095 4.41113 8.32715C4.49243 8.2933 4.5799 8.27539 4.66797 8.27539C4.75585 8.27543 4.84269 8.29341 4.92383 8.32715C5.00513 8.36099 5.07958 8.41017 5.1416 8.47266L7.33594 10.666V3.99902C7.33606 3.82253 7.40645 3.65321 7.53125 3.52832C7.65625 3.40341 7.82617 3.33314 8.00293 3.33301Z" fill="black"/>
</svg>
