<svg width="12" height="12" viewBox="0 0 12 12" fill="none" xmlns="http://www.w3.org/2000/svg">
<path d="M9.3428 5.16667H9.29483C9.3527 4.97637 9.3658 4.7753 9.33311 4.57911C9.30041 4.38293 9.2228 4.19694 9.10633 4.03563C8.98986 3.87433 8.83767 3.74207 8.66162 3.64916C8.48557 3.55625 8.29042 3.50521 8.09138 3.5H2.25142C-0.0224105 3.655 1.41714 7.10458 2.00572 8.04667C2.26968 8.44606 2.62957 8.77305 3.05255 8.9978C3.47553 9.22256 3.94814 9.33791 4.42722 9.33333H5.91516C6.3865 9.33764 6.85164 9.22583 7.26941 9.00781C7.68719 8.78978 8.04472 8.47226 8.31038 8.08333H9.3428C11.3509 8.04458 11.7451 5.0925 9.3428 5.16667ZM5.91516 8.5H4.42722C4.08691 8.50458 3.75088 8.42388 3.44985 8.26528C3.14882 8.10667 2.89239 7.87522 2.70402 7.59208C2.47709 7.375 1.20607 4.33333 2.25142 4.33333H8.09138C8.14877 4.33315 8.20555 4.34512 8.25797 4.36846C8.31039 4.3918 8.35726 4.42599 8.39548 4.46875C8.43614 4.5135 8.46686 4.56633 8.48562 4.62378C8.50439 4.68123 8.51077 4.74199 8.50435 4.80208C8.2695 6.57667 7.82775 8.42125 5.91516 8.5ZM9.3428 7.25H8.7538C8.92528 6.84668 9.05851 6.42818 9.15175 6C9.65607 5.96625 10.2138 6.09 10.1771 6.47625C10.1635 6.68735 10.0695 6.88524 9.91429 7.02917C9.7591 7.17311 9.55457 7.25214 9.3428 7.25ZM4.76469 2.25V1.41667C4.76469 1.30616 4.80864 1.20018 4.88687 1.12204C4.9651 1.0439 5.0712 1 5.18183 1C5.29246 1 5.39856 1.0439 5.47679 1.12204C5.55502 1.20018 5.59897 1.30616 5.59897 1.41667V2.25C5.59897 2.36051 5.55502 2.46649 5.47679 2.54463C5.39856 2.62277 5.29246 2.66667 5.18183 2.66667C5.0712 2.66667 4.9651 2.62277 4.88687 2.54463C4.80864 2.46649 4.76469 2.36051 4.76469 2.25ZM6.43325 2.25V1.41667C6.43325 1.30616 6.4772 1.20018 6.55543 1.12204C6.63366 1.0439 6.73976 1 6.85039 1C6.96102 1 7.06712 1.0439 7.14535 1.12204C7.22358 1.20018 7.26753 1.30616 7.26753 1.41667V2.25C7.26753 2.36051 7.22358 2.46649 7.14535 2.54463C7.06712 2.62277 6.96102 2.66667 6.85039 2.66667C6.73976 2.66667 6.63366 2.62277 6.55543 2.54463C6.4772 2.46649 6.43325 2.36051 6.43325 2.25ZM3.09613 2.25V1.41667C3.09613 1.30616 3.14008 1.20018 3.21831 1.12204C3.29654 1.0439 3.40264 1 3.51327 1C3.6239 1 3.73 1.0439 3.80823 1.12204C3.88646 1.20018 3.93041 1.30616 3.93041 1.41667V2.25C3.93041 2.36051 3.88646 2.46649 3.80823 2.54463C3.73 2.62277 3.6239 2.66667 3.51327 2.66667C3.40264 2.66667 3.29654 2.62277 3.21831 2.54463C3.14008 2.46649 3.09613 2.36051 3.09613 2.25ZM9.3428 10.5833C9.3428 10.6938 9.29885 10.7998 9.22062 10.878C9.1424 10.9561 9.03629 11 8.92566 11H1.41714C1.30651 11 1.20041 10.9561 1.12218 10.878C1.04395 10.7998 1 10.6938 1 10.5833C1 10.4728 1.04395 10.3668 1.12218 10.2887C1.20041 10.2106 1.30651 10.1667 1.41714 10.1667H8.92566C9.03629 10.1667 9.1424 10.2106 9.22062 10.2887C9.29885 10.3668 9.3428 10.4728 9.3428 10.5833Z" fill="#DBDFE5"/>
</svg>
