<svg width="12" height="12" viewBox="0 0 12 12" fill="none" xmlns="http://www.w3.org/2000/svg">
<path d="M5 3.5L1.5 3.5M10.5 3.5L7 3.5M7 3.62598C8.72523 4.07002 10 5.63612 10 7.49996M2 7.49996C2 5.63612 3.27477 4.07002 5 3.62598M1.8 9.5H2.2C2.48003 9.5 2.62004 9.5 2.727 9.4455C2.82108 9.39757 2.89757 9.32108 2.9455 9.227C3 9.12004 3 8.98003 3 8.7V8.3C3 8.01997 3 7.87996 2.9455 7.773C2.89757 7.67892 2.82108 7.60243 2.727 7.5545C2.62004 7.5 2.48003 7.5 2.2 7.5H1.8C1.51997 7.5 1.37996 7.5 1.273 7.5545C1.17892 7.60243 1.10243 7.67892 1.0545 7.773C1 7.87996 1 8.01997 1 8.3V8.7C1 8.98003 1 9.12004 1.0545 9.227C1.10243 9.32108 1.17892 9.39757 1.273 9.4455C1.37996 9.5 1.51997 9.5 1.8 9.5ZM5.8 4.5H6.2C6.48003 4.5 6.62004 4.5 6.727 4.4455C6.82108 4.39757 6.89757 4.32108 6.9455 4.227C7 4.12004 7 3.98003 7 3.7V3.3C7 3.01997 7 2.87996 6.9455 2.773C6.89757 2.67892 6.82108 2.60243 6.727 2.5545C6.62004 2.5 6.48003 2.5 6.2 2.5H5.8C5.51997 2.5 5.37996 2.5 5.273 2.5545C5.17892 2.60243 5.10243 2.67892 5.0545 2.773C5 2.87996 5 3.01997 5 3.3V3.7C5 3.98003 5 4.12004 5.0545 4.227C5.10243 4.32108 5.17892 4.39757 5.273 4.4455C5.37996 4.5 5.51997 4.5 5.8 4.5ZM9.8 9.5H10.2C10.48 9.5 10.62 9.5 10.727 9.4455C10.8211 9.39757 10.8976 9.32108 10.9455 9.227C11 9.12004 11 8.98003 11 8.7V8.3C11 8.01997 11 7.87996 10.9455 7.773C10.8976 7.67892 10.8211 7.60243 10.727 7.5545C10.62 7.5 10.48 7.5 10.2 7.5H9.8C9.51997 7.5 9.37996 7.5 9.273 7.5545C9.17892 7.60243 9.10243 7.67892 9.0545 7.773C9 7.87996 9 8.01997 9 8.3V8.7C9 8.98003 9 9.12004 9.0545 9.227C9.10243 9.32108 9.17892 9.39757 9.273 9.4455C9.37996 9.5 9.51997 9.5 9.8 9.5ZM11 3.5C11 3.77614 10.7761 4 10.5 4C10.2239 4 10 3.77614 10 3.5C10 3.22386 10.2239 3 10.5 3C10.7761 3 11 3.22386 11 3.5ZM2 3.5C2 3.77614 1.77614 4 1.5 4C1.22386 4 1 3.77614 1 3.5C1 3.22386 1.22386 3 1.5 3C1.77614 3 2 3.22386 2 3.5Z" stroke="#DBDFE5" stroke-width="0.8" stroke-linecap="round" stroke-linejoin="round"/>
</svg>
