<svg width="18" height="18" viewBox="0 0 18 18" fill="none" xmlns="http://www.w3.org/2000/svg">
<g clip-path="url(#clip0_1_495)">
<path d="M15.8775 14.817C16.2705 14.2238 16.5 13.5135 16.5 12.75C16.5 10.6823 14.8177 9 12.75 9C10.6823 9 9 10.6823 9 12.75C9 14.8177 10.6823 16.5 12.75 16.5C13.5135 16.5 14.2238 16.2705 14.817 15.8775L16.7197 17.7803C16.866 17.9265 17.058 18 17.25 18C17.442 18 17.634 17.9265 17.7803 17.7803C18.0735 17.487 18.0735 17.013 17.7803 16.7197L15.8775 14.817ZM10.5 12.75C10.5 11.5095 11.5095 10.5 12.75 10.5C13.9905 10.5 15 11.5095 15 12.75C15 13.9905 13.9905 15 12.75 15C11.5095 15 10.5 13.9905 10.5 12.75ZM4.5 3.375C4.5 3.996 3.996 4.5 3.375 4.5C2.754 4.5 2.25 3.996 2.25 3.375C2.25 2.754 2.754 2.25 3.375 2.25C3.996 2.25 4.5 2.754 4.5 3.375ZM7.5 3.375C7.5 3.996 6.996 4.5 6.375 4.5C5.754 4.5 5.25 3.996 5.25 3.375C5.25 2.754 5.754 2.25 6.375 2.25C6.996 2.25 7.5 2.754 7.5 3.375ZM14.25 0H3.75C1.68225 0 0 1.68225 0 3.75V12.75C0 14.8177 1.68225 16.5 3.75 16.5H7.5C7.91475 16.5 8.25 16.1647 8.25 15.75C8.25 15.3352 7.91475 15 7.5 15H3.75C2.5095 15 1.5 13.9905 1.5 12.75V6.75H16.5V9C16.5 9.414 16.8353 9.75 17.25 9.75C17.6647 9.75 18 9.414 18 9V3.75C18 1.68225 16.3177 0 14.25 0ZM1.5 5.25V3.75C1.5 2.5095 2.5095 1.5 3.75 1.5H14.25C15.4905 1.5 16.5 2.5095 16.5 3.75V5.25H1.5Z" fill="white"/>
</g>
<defs>
<clipPath id="clip0_1_495">
<rect width="18" height="18" fill="white"/>
</clipPath>
</defs>
</svg>
