<svg width="20" height="21" viewBox="0 0 20 21" fill="none" xmlns="http://www.w3.org/2000/svg">
<path d="M1.66663 10.3333H18.3333M1.66663 10.3333C1.66663 14.9357 5.39759 18.6667 9.99996 18.6667M1.66663 10.3333C1.66663 5.73096 5.39759 2 9.99996 2M18.3333 10.3333C18.3333 14.9357 14.6023 18.6667 9.99996 18.6667M18.3333 10.3333C18.3333 5.73096 14.6023 2 9.99996 2M9.99996 2C12.0844 4.28196 13.2689 7.24336 13.3333 10.3333C13.2689 13.4233 12.0844 16.3847 9.99996 18.6667M9.99996 2C7.91556 4.28196 6.731 7.24336 6.66663 10.3333C6.731 13.4233 7.91556 16.3847 9.99996 18.6667" stroke="white" stroke-width="1.6" stroke-linecap="round" stroke-linejoin="round"/>
</svg>
