<svg width="12" height="12" viewBox="0 0 12 12" fill="none" xmlns="http://www.w3.org/2000/svg">
<path d="M4.75 11H7.25M5 5H7M6 5L6 8M7.5 7.66318C8.68247 7.10145 9.5 5.8962 9.5 4.5C9.5 2.567 7.933 1 6 1C4.067 1 2.5 2.567 2.5 4.5C2.5 5.8962 3.31753 7.10145 4.5 7.66318V8C4.5 8.46594 4.5 8.69891 4.57612 8.88268C4.67761 9.12771 4.87229 9.32239 5.11732 9.42388C5.30109 9.5 5.53406 9.5 6 9.5C6.46594 9.5 6.69891 9.5 6.88268 9.42388C7.12771 9.32239 7.32239 9.12771 7.42388 8.88268C7.5 8.69891 7.5 8.46594 7.5 8V7.66318Z" stroke="#DBDFE5" stroke-width="0.8" stroke-linecap="round" stroke-linejoin="round"/>
</svg>
