<svg width="20" height="21" viewBox="0 0 20 21" fill="none" xmlns="http://www.w3.org/2000/svg">
<path d="M8.33329 15.0488V17C8.33329 17.9205 9.07949 18.6667 9.99996 18.6667C10.9204 18.6667 11.6666 17.9205 11.6666 17V15.0488M9.99996 2V2.83333M2.49996 10.3333H1.66663M4.58329 4.91667L4.08321 4.41659M15.4166 4.91667L15.9168 4.41659M18.3333 10.3333H17.5M15 10.3333C15 13.0948 12.7614 15.3333 9.99996 15.3333C7.23854 15.3333 4.99996 13.0948 4.99996 10.3333C4.99996 7.57191 7.23854 5.33333 9.99996 5.33333C12.7614 5.33333 15 7.57191 15 10.3333Z" stroke="white" stroke-width="1.6" stroke-linecap="round" stroke-linejoin="round"/>
</svg>
