<svg width="16" height="16" viewBox="0 0 16 16" fill="none" xmlns="http://www.w3.org/2000/svg">
<path d="M9.1628 1.7557L14.1815 5.01784C14.3588 5.13311 14.4475 5.19074 14.5117 5.26762C14.5686 5.33568 14.6113 5.41439 14.6374 5.49916C14.6668 5.59492 14.6668 5.70067 14.6668 5.91218V10.8C14.6668 11.9201 14.6668 12.4801 14.4488 12.908C14.2571 13.2843 13.9511 13.5902 13.5748 13.782C13.147 14 12.5869 14 11.4668 14H4.5335C3.41339 14 2.85334 14 2.42552 13.782C2.04919 13.5902 1.74323 13.2843 1.55148 12.908C1.3335 12.4801 1.3335 11.9201 1.3335 10.8V5.91218C1.3335 5.70067 1.3335 5.59492 1.36294 5.49916C1.38901 5.41439 1.43173 5.33568 1.48859 5.26762C1.55284 5.19074 1.64151 5.13311 1.81884 5.01784L6.83752 1.7557M9.1628 1.7557C8.74198 1.48216 8.53156 1.34539 8.30485 1.29218C8.10445 1.24514 7.89588 1.24514 7.69548 1.29218C7.46876 1.34539 7.25835 1.48216 6.83752 1.7557M9.1628 1.7557L13.2909 4.43897C13.7495 4.73704 13.9788 4.88608 14.0582 5.07507C14.1276 5.24024 14.1276 5.42639 14.0582 5.59156C13.9788 5.78055 13.7495 5.92959 13.2909 6.22766L9.1628 8.91093C8.74198 9.18447 8.53156 9.32124 8.30485 9.37445C8.10445 9.42149 7.89588 9.42149 7.69548 9.37445C7.46876 9.32124 7.25835 9.18447 6.83752 8.91093L2.7094 6.22766C2.25084 5.92959 2.02156 5.78055 1.94215 5.59156C1.87275 5.42639 1.87275 5.24024 1.94215 5.07507C2.02156 4.88608 2.25084 4.73704 2.7094 4.43898L6.83752 1.7557M14.3335 12.6666L9.90495 8.66665M6.09538 8.66665L1.66683 12.6666" stroke="#FE995A" stroke-width="1.2" stroke-linecap="round" stroke-linejoin="round"/>
</svg>
