<svg width="18" height="18" viewBox="0 0 18 18" fill="none" xmlns="http://www.w3.org/2000/svg">
<g clip-path="url(#clip0_1_568)">
<path d="M12.75 15.75C12.75 16.7857 11.9108 17.625 10.875 17.625C10.1062 17.625 9.44775 17.1615 9.15825 16.5H0.75C0.33525 16.5 0 16.164 0 15.75C0 15.336 0.33525 15 0.75 15H9.15825C9.44775 14.3385 10.1062 13.875 10.875 13.875C11.9108 13.875 12.75 14.7142 12.75 15.75ZM13.125 3C12.0892 3 11.25 3.83925 11.25 4.875C11.25 5.91075 12.0892 6.75 13.125 6.75C14.1608 6.75 15 5.91075 15 4.875C15 3.83925 14.1608 3 13.125 3ZM18 3.75V9C18 11.0677 16.3177 12.75 14.25 12.75H3.75C1.68225 12.75 0 11.0677 0 9V3.75C0 1.68225 1.68225 0 3.75 0H14.25C16.3177 0 18 1.68225 18 3.75ZM16.5 3.75C16.5 2.5095 15.4905 1.5 14.25 1.5H3.75C2.5095 1.5 1.5 2.5095 1.5 3.75V9C1.5 10.2405 2.5095 11.25 3.75 11.25H14.25C15.4905 11.25 16.5 10.2405 16.5 9V3.75ZM8.66775 4.1355C7.13175 4.89525 6.2625 6.0825 5.7765 7.08225C5.1015 6.3675 4.266 6.1035 3.927 6.021C3.5265 5.922 3.1185 6.171 3.02175 6.573C2.92425 6.97575 3.171 7.38075 3.57375 7.47825C3.98175 7.57725 4.9575 7.938 5.1945 9.144C5.26425 9.4965 5.57325 9.74775 5.93025 9.74775C5.937 9.74775 5.9445 9.74775 5.9505 9.74775C6.3165 9.73725 6.6225 9.4635 6.6735 9.1005C6.68775 8.99925 7.047 6.60975 9.33225 5.4795C9.7035 5.29575 9.85575 4.84575 9.672 4.4745C9.4875 4.10325 9.03825 3.95025 8.667 4.13475L8.66775 4.1355ZM17.25 15H15C14.5852 15 14.25 15.336 14.25 15.75C14.25 16.164 14.5852 16.5 15 16.5H17.25C17.6647 16.5 18 16.164 18 15.75C18 15.336 17.6647 15 17.25 15Z" fill="white"/>
</g>
<defs>
<clipPath id="clip0_1_568">
<rect width="18" height="18" fill="white"/>
</clipPath>
</defs>
</svg>
