<svg width="20" height="21" viewBox="0 0 20 21" fill="none" xmlns="http://www.w3.org/2000/svg">
<path d="M6.24996 4.41634C6.24996 3.26575 7.1827 2.33301 8.33329 2.33301C9.48389 2.33301 10.4166 3.26575 10.4166 4.41634V5.66634H11.25C12.4148 5.66634 12.9972 5.66634 13.4567 5.85664C14.0692 6.11038 14.5559 6.59706 14.8097 7.20963C15 7.66906 15 8.25149 15 9.41634H16.25C17.4006 9.41634 18.3333 10.3491 18.3333 11.4997C18.3333 12.6503 17.4006 13.583 16.25 13.583H15V14.9997C15 16.3998 15 17.0999 14.7275 17.6347C14.4878 18.1051 14.1053 18.4875 13.6349 18.7272C13.1002 18.9997 12.4001 18.9997 11 18.9997H10.4166V17.5413C10.4166 16.5058 9.57716 15.6663 8.54163 15.6663C7.50609 15.6663 6.66663 16.5058 6.66663 17.5413V18.9997H5.66663C4.26649 18.9997 3.56643 18.9997 3.03165 18.7272C2.56124 18.4875 2.17879 18.1051 1.93911 17.6347C1.66663 17.0999 1.66663 16.3998 1.66663 14.9997V13.583H2.91663C4.06722 13.583 4.99996 12.6503 4.99996 11.4997C4.99996 10.3491 4.06722 9.41634 2.91663 9.41634H1.66663C1.66663 8.25149 1.66663 7.66906 1.85693 7.20963C2.11066 6.59706 2.59735 6.11038 3.20992 5.85664C3.66935 5.66634 4.25177 5.66634 5.41663 5.66634H6.24996V4.41634Z" stroke="white" stroke-width="1.6" stroke-linecap="round" stroke-linejoin="round"/>
</svg>
