<svg width="36" height="31" viewBox="0 0 36 31" fill="none" xmlns="http://www.w3.org/2000/svg">
<path opacity="0.64" d="M15.9727 30.9268L15.9727 13.6318C15.9727 9.72884 14.6478 6.68522 11.998 4.50098C9.3483 2.35254 5.57064 1.02767 0.665036 0.526367L0.665037 8.95898C3.52962 9.35286 5.73177 10.0869 7.27148 11.1611C8.8112 12.2354 9.8317 13.7393 10.333 15.6729L0.665038 15.6729L0.665039 30.9268L15.9727 30.9268ZM35.8457 30.9268L35.8457 13.6318C35.8457 9.72884 34.5208 6.68522 31.8711 4.50097C29.2214 2.35254 25.4437 1.02767 20.5381 0.526365L20.5381 8.95898C23.4027 9.35286 25.6048 10.0869 27.1445 11.1611C28.6842 12.2353 29.7048 13.7393 30.2061 15.6728L20.5381 15.6728L20.5381 30.9268L35.8457 30.9268Z" fill="#D17140"/>
</svg>
