<svg width="16" height="16" viewBox="0 0 16 16" fill="none" xmlns="http://www.w3.org/2000/svg">
<path d="M7.67676 1.51867e-05C8.28981 -0.00155067 8.89747 0.117985 9.46387 0.352554C10.0301 0.587083 10.5442 0.931829 10.9766 1.36623L13.2998 3.69044C13.7345 4.12253 14.0788 4.63693 14.3135 5.20314C14.5482 5.76949 14.6687 6.3772 14.667 6.99025V12.667C14.6658 13.5505 14.3142 14.3977 13.6895 15.0225C13.0646 15.6474 12.2167 15.999 11.333 16H4.66699C3.78326 15.999 2.93544 15.6474 2.31055 15.0225C1.68583 14.3977 1.33415 13.5505 1.33301 12.667V3.33302C1.33415 2.44949 1.68583 1.60235 2.31055 0.977554C2.93544 0.352662 3.78326 0.00107376 4.66699 1.51867e-05H7.67676ZM4.66699 1.33302C4.13671 1.33302 3.62797 1.54409 3.25293 1.91896C2.87793 2.29396 2.66708 2.80271 2.66699 3.33302V12.667C2.66708 13.1973 2.87793 13.7061 3.25293 14.0811C3.62797 14.4559 4.13671 14.667 4.66699 14.667H11.333C11.8633 14.667 12.372 14.4559 12.7471 14.0811C13.1221 13.7061 13.3329 13.1973 13.333 12.667V6.99025C13.333 6.88035 13.3118 6.7749 13.3018 6.66701H10C9.46964 6.66701 8.96099 6.45604 8.58594 6.08107C8.21094 5.70607 8.00009 5.19732 8 4.66701V1.36427C7.89204 1.35427 7.78605 1.33303 7.67676 1.33302H4.66699ZM8.66699 11.333C8.84353 11.3331 9.01278 11.4036 9.1377 11.5283C9.26272 11.6534 9.33301 11.8232 9.33301 12C9.33301 12.1768 9.26272 12.3467 9.1377 12.4717C9.01278 12.5964 8.84353 12.6669 8.66699 12.667H5.33301C5.15647 12.6669 4.98722 12.5964 4.8623 12.4717C4.73728 12.3467 4.66699 12.1768 4.66699 12C4.66699 11.8232 4.73728 11.6534 4.8623 11.5283C4.98722 11.4036 5.15647 11.3331 5.33301 11.333H8.66699ZM10.667 8.66701C10.8437 8.66709 11.0127 8.73737 11.1377 8.86232C11.2626 8.98727 11.3329 9.15633 11.333 9.33302C11.333 9.50983 11.2627 9.67968 11.1377 9.8047C11.0128 9.92955 10.8436 9.99993 10.667 10H5.33301C5.15639 9.99993 4.98724 9.92955 4.8623 9.8047C4.73728 9.67968 4.66699 9.50983 4.66699 9.33302C4.66708 9.15633 4.73736 8.98727 4.8623 8.86232C4.98725 8.73737 5.15631 8.66709 5.33301 8.66701H10.667ZM9.33301 4.66701C9.33309 4.84355 9.40358 5.01279 9.52832 5.13771C9.65334 5.26273 9.82319 5.33302 10 5.33302H12.877C12.735 5.07802 12.5599 4.84309 12.3564 4.6338L10.0342 2.30959C9.82437 2.10636 9.5883 1.93103 9.33301 1.78908V4.66701Z" fill="#111113"/>
</svg>
