<svg width="16" height="16" viewBox="0 0 16 16" fill="none" xmlns="http://www.w3.org/2000/svg">
<path d="M7.67676 -7.2132e-08C8.28981 -0.00156593 8.89747 0.11797 9.46387 0.352539C10.0301 0.587068 10.5442 0.931813 10.9766 1.36621L13.2998 3.69043C13.7345 4.12251 14.0788 4.63692 14.3135 5.20312C14.5482 5.76947 14.6687 6.37718 14.667 6.99023V12.667C14.6658 13.5505 14.3142 14.3977 13.6895 15.0225C13.0646 15.6474 12.2167 15.9989 11.333 16H4.66699C3.78326 15.9989 2.93544 15.6474 2.31055 15.0225C1.68583 14.3977 1.33415 13.5505 1.33301 12.667V3.33301C1.33415 2.44947 1.68583 1.60234 2.31055 0.977539C2.93544 0.352647 3.78326 0.0010585 4.66699 -7.2132e-08H7.67676ZM4.66699 1.33301C4.13671 1.33301 3.62797 1.54408 3.25293 1.91895C2.87793 2.29394 2.66708 2.80269 2.66699 3.33301V12.667C2.66708 13.1973 2.87793 13.7061 3.25293 14.0811C3.62797 14.4559 4.13671 14.667 4.66699 14.667H11.333C11.8633 14.667 12.372 14.4559 12.7471 14.0811C13.1221 13.7061 13.3329 13.1973 13.333 12.667V6.99023C13.333 6.88034 13.3118 6.77489 13.3018 6.66699H10C9.46964 6.66699 8.96099 6.45603 8.58594 6.08105C8.21094 5.70606 8.00009 5.19731 8 4.66699V1.36426C7.89204 1.35426 7.78605 1.33302 7.67676 1.33301H4.66699ZM8.66699 11.333C8.84353 11.3331 9.01278 11.4036 9.1377 11.5283C9.26272 11.6533 9.33301 11.8232 9.33301 12C9.33301 12.1768 9.26272 12.3467 9.1377 12.4717C9.01278 12.5964 8.84353 12.6669 8.66699 12.667H5.33301C5.15647 12.6669 4.98722 12.5964 4.8623 12.4717C4.73728 12.3467 4.66699 12.1768 4.66699 12C4.66699 11.8232 4.73728 11.6533 4.8623 11.5283C4.98722 11.4036 5.15647 11.3331 5.33301 11.333H8.66699ZM10.667 8.66699C10.8437 8.66708 11.0127 8.73736 11.1377 8.8623C11.2626 8.98725 11.3329 9.15631 11.333 9.33301C11.333 9.50982 11.2627 9.67966 11.1377 9.80469C11.0128 9.92953 10.8436 9.99991 10.667 10H5.33301C5.15639 9.99991 4.98724 9.92953 4.8623 9.80469C4.73728 9.67966 4.66699 9.50982 4.66699 9.33301C4.66708 9.15631 4.73736 8.98725 4.8623 8.8623C4.98725 8.73736 5.15631 8.66708 5.33301 8.66699H10.667ZM9.33301 4.66699C9.33309 4.84353 9.40358 5.01278 9.52832 5.1377C9.65334 5.26272 9.82319 5.33301 10 5.33301H12.877C12.735 5.07801 12.5599 4.84308 12.3564 4.63379L10.0342 2.30957C9.82437 2.10634 9.5883 1.93101 9.33301 1.78906V4.66699Z" fill="white"/>
</svg>
