<svg width="18" height="18" viewBox="0 0 18 18" fill="none" xmlns="http://www.w3.org/2000/svg">
<g clip-path="url(#clip0_1_742)">
<path d="M17.118 12.8842L5.11575 0.882745C4.242 0.008995 2.9895 -0.241505 1.85025 0.233245C0.70875 0.704995 0 1.7655 0 3.0015V14.2447C0 16.3155 1.6845 18 3.75525 18H14.9985C16.233 18 17.2942 17.2912 17.7667 16.1497C18.2392 15.0082 17.991 13.758 17.118 12.8842ZM16.3822 15.5767C16.1422 16.155 15.6255 16.5 14.9992 16.5H3.75525C2.51175 16.5 1.5 15.4882 1.5 14.2447V3.0015C1.5 2.37525 1.845 1.8585 2.424 1.6185C2.61975 1.5375 2.8185 1.49775 3.01425 1.49775C3.396 1.49775 3.76275 1.65 4.05525 1.94325L5.2635 3.1515L3.8325 4.5825C3.53925 4.87575 3.53925 5.34975 3.8325 5.643C3.97875 5.78925 4.17075 5.86275 4.36275 5.86275C4.55475 5.86275 4.74675 5.78925 4.893 5.643L6.324 4.212L7.4235 5.3115L5.9925 6.7425C5.69925 7.03575 5.69925 7.50975 5.9925 7.803C6.13875 7.94925 6.33075 8.02275 6.52275 8.02275C6.71475 8.02275 6.90675 7.94925 7.053 7.803L8.484 6.372L9.54525 7.4325L8.11425 8.86349C7.821 9.15674 7.821 9.63075 8.11425 9.924C8.2605 10.0702 8.4525 10.1437 8.6445 10.1437C8.8365 10.1437 9.0285 10.0702 9.17475 9.924L10.6057 8.493L11.6662 9.5535L10.2352 10.9845C9.942 11.2777 9.942 11.7517 10.2352 12.045C10.3815 12.1912 10.5735 12.2647 10.7655 12.2647C10.9575 12.2647 11.1495 12.1912 11.2957 12.045L12.7267 10.614L13.7872 11.6745L12.3562 13.1055C12.063 13.3987 12.063 13.8727 12.3562 14.166C12.5025 14.3122 12.6945 14.3857 12.8865 14.3857C13.0785 14.3857 13.2705 14.3122 13.4167 14.166L14.8477 12.735L16.056 13.9432C16.4985 14.3865 16.62 14.9962 16.3807 15.5752L16.3822 15.5767ZM8.031 12.2197C8.2455 12.4342 8.31 12.7567 8.19375 13.0372C8.0775 13.3177 7.80375 13.5 7.50075 13.5H5.25075C4.83675 13.5 4.50075 13.1647 4.50075 12.75V10.5C4.50075 10.197 4.68375 9.9225 4.9635 9.807C5.244 9.69 5.5665 9.75525 5.781 9.96975L8.031 12.2197Z" fill="white"/>
</g>
<defs>
<clipPath id="clip0_1_742">
<rect width="18" height="18" fill="white"/>
</clipPath>
</defs>
</svg>
