<svg width="16" height="16" viewBox="0 0 16 16" fill="none" xmlns="http://www.w3.org/2000/svg">
<path d="M12.756 7.71271C12.756 7.46204 12.6154 7.23204 12.3914 7.11804C11.818 6.82604 11.204 6.55737 10.516 6.29604C9.37869 5.86004 8.55002 5.01871 8.11936 3.86604C7.86136 3.16671 7.59603 2.54404 7.30869 1.96271C7.19603 1.73604 6.96403 1.59204 6.71136 1.59204C6.45869 1.59204 6.22536 1.73604 6.11402 1.96337C5.82736 2.54271 5.56269 3.16537 5.30469 3.86337C4.87403 5.01804 4.04469 5.85937 2.90936 6.29471C2.21736 6.55804 1.60269 6.82671 1.03136 7.11804C0.808025 7.23137 0.667358 7.46137 0.667358 7.71204C0.667358 7.96271 0.808025 8.19271 1.03203 8.30671C1.60669 8.59871 2.22069 8.86804 2.90736 9.12804C4.04469 9.56404 4.87336 10.4054 5.30403 11.5587C5.56336 12.2607 5.82802 12.882 6.11402 13.4614C6.22669 13.6887 6.45803 13.8327 6.71136 13.8327C6.96469 13.8327 7.19669 13.6887 7.30869 13.4614C7.59603 12.882 7.86069 12.2594 8.11803 11.5607C8.54936 10.406 9.37936 9.56471 10.5134 9.12937C11.2027 8.86804 11.8167 8.59937 12.3914 8.30737C12.6154 8.19337 12.756 7.96404 12.756 7.71271Z" fill="#F9B286"/>
<path d="M11.3973 4.36132C11.5673 4.44798 11.7346 4.51932 11.8993 4.58198C12.0373 4.63532 12.134 4.73398 12.186 4.87198C12.2473 5.04065 12.3173 5.20865 12.402 5.38065C12.5133 5.60865 12.7453 5.75398 12.9993 5.75398H13.0006C13.254 5.75398 13.486 5.60998 13.598 5.38265C13.6826 5.21132 13.752 5.04265 13.814 4.87532C13.8673 4.73398 13.964 4.63532 14.0993 4.58332C14.2666 4.51998 14.4333 4.44865 14.6033 4.36198C14.8273 4.24865 14.968 4.01798 14.968 3.76732C14.968 3.51665 14.8266 3.28665 14.6026 3.17332C14.4333 3.08798 14.2666 3.01665 14.1013 2.95332C13.964 2.90065 13.8673 2.80198 13.8146 2.66198C13.752 2.49332 13.6826 2.32465 13.5973 2.15265C13.4853 1.92598 13.2533 1.78198 13 1.78198H12.9986C12.7446 1.78198 12.5133 1.92665 12.4013 2.15465C12.3173 2.32598 12.2473 2.49465 12.1866 2.65998C12.1333 2.80132 12.0366 2.89998 11.9013 2.95198C11.7333 3.01598 11.5666 3.08665 11.3966 3.17332C11.1726 3.28665 11.032 3.51665 11.032 3.76732C11.032 4.01798 11.1726 4.24798 11.3966 4.36132H11.3973Z" fill="#F9B286"/>
<path d="M14.9686 11.4566C14.7573 11.3493 14.5486 11.26 14.3433 11.1826C14.1173 11.096 13.9526 10.928 13.868 10.7C13.79 10.4893 13.7026 10.2786 13.5973 10.0653C13.4846 9.83797 13.2526 9.69397 13 9.69397C12.746 9.69397 12.514 9.83864 12.4026 10.0666C12.298 10.28 12.2106 10.49 12.1346 10.6966C12.048 10.928 11.8833 11.096 11.6606 11.1813C11.4526 11.26 11.2433 11.3493 11.0326 11.4573C10.8093 11.5713 10.6686 11.8006 10.6686 12.0513C10.6686 12.302 10.8093 12.5313 11.0326 12.6453C11.2433 12.7526 11.4513 12.8413 11.6586 12.9206C11.8833 13.0066 12.048 13.174 12.1333 13.4026C12.2106 13.6126 12.298 13.8233 12.4033 14.036C12.5153 14.2633 12.7466 14.4073 13.0006 14.408C13.254 14.408 13.4853 14.2646 13.598 14.0373C13.704 13.824 13.7913 13.6133 13.8686 13.4046C13.954 13.174 14.1186 13.0066 14.3433 12.9206C14.5513 12.8413 14.7586 12.7533 14.9693 12.646C15.1933 12.532 15.334 12.302 15.334 12.0513C15.334 11.8006 15.1933 11.5706 14.9693 11.4566H14.9686Z" fill="#F9B286"/>
</svg>
