<svg width="16" height="16" viewBox="0 0 16 16" fill="none" xmlns="http://www.w3.org/2000/svg">
<g clip-path="url(#clip0_51_3210)">
<path d="M2.66685 14.545C3.06856 14.6667 3.61116 14.6667 4.5335 14.6667H11.4668C12.3892 14.6667 12.9318 14.6667 13.3335 14.545M2.66685 14.545C2.58071 14.5189 2.50105 14.4872 2.42552 14.4487C2.04919 14.2569 1.74323 13.951 1.55148 13.5747C1.3335 13.1468 1.3335 12.5868 1.3335 11.4667V4.53334C1.3335 3.41324 1.3335 2.85319 1.55148 2.42536C1.74323 2.04904 2.04919 1.74308 2.42552 1.55133C2.85334 1.33334 3.41339 1.33334 4.5335 1.33334H11.4668C12.5869 1.33334 13.147 1.33334 13.5748 1.55133C13.9511 1.74308 14.2571 2.04904 14.4488 2.42536C14.6668 2.85319 14.6668 3.41324 14.6668 4.53334V11.4667C14.6668 12.5868 14.6668 13.1468 14.4488 13.5747C14.2571 13.951 13.9511 14.2569 13.5748 14.4487C13.4993 14.4872 13.4196 14.5189 13.3335 14.545M2.66685 14.545C2.66706 14.0054 2.6703 13.7199 2.71807 13.4798C2.92849 12.4219 3.75541 11.595 4.81326 11.3846C5.07085 11.3333 5.38062 11.3333 6.00016 11.3333H10.0002C10.6197 11.3333 10.9295 11.3333 11.1871 11.3846C12.2449 11.595 13.0718 12.4219 13.2823 13.4798C13.33 13.7199 13.3333 14.0054 13.3335 14.545M10.6668 6.33334C10.6668 7.8061 9.47292 9.00001 8.00016 9.00001C6.5274 9.00001 5.3335 7.8061 5.3335 6.33334C5.3335 4.86058 6.5274 3.66668 8.00016 3.66668C9.47292 3.66668 10.6668 4.86058 10.6668 6.33334Z" stroke="#FE995A" stroke-width="1.2" stroke-linecap="round" stroke-linejoin="round"/>
</g>
<defs>
<clipPath id="clip0_51_3210">
<rect width="16" height="16" fill="white"/>
</clipPath>
</defs>
</svg>
