<svg width="18" height="18" viewBox="0 0 18 18" fill="none" xmlns="http://www.w3.org/2000/svg">
<g clip-path="url(#clip0_1_525)">
<path d="M15.75 12.0003V9.00028C15.7498 7.99266 15.5235 6.99794 15.0879 6.08935C14.6523 5.18076 14.0184 4.38145 13.233 3.75028H15.2078C15.374 4.03349 15.6289 4.25401 15.9331 4.37771C16.2373 4.50141 16.5738 4.5214 16.8904 4.43456C17.2071 4.34773 17.4864 4.15893 17.6849 3.89738C17.8835 3.63583 17.9903 3.31612 17.9888 2.98775C17.9874 2.65937 17.8777 2.34063 17.6768 2.08088C17.4759 1.82113 17.1949 1.63485 16.8775 1.55087C16.56 1.46689 16.2237 1.4899 15.9207 1.61634C15.6176 1.74277 15.3647 1.96558 15.201 2.25028H11.8935C11.7298 1.60709 11.3565 1.03678 10.8325 0.629444C10.3085 0.222111 9.66369 0.000976563 9 0.000976562C8.33631 0.000976563 7.69153 0.222111 7.16754 0.629444C6.64354 1.03678 6.2702 1.60709 6.1065 2.25028H2.79225C2.62604 1.96706 2.37111 1.74654 2.06692 1.62284C1.76273 1.49914 1.42624 1.47915 1.10955 1.56599C0.792859 1.65282 0.51362 1.84162 0.31506 2.10317C0.1165 2.36472 0.00969191 2.68443 0.0111696 3.01281C0.0126473 3.34118 0.122328 3.65992 0.323234 3.91967C0.52414 4.17942 0.805067 4.3657 1.12253 4.44968C1.43999 4.53366 1.77628 4.51065 2.07934 4.38421C2.38241 4.25778 2.63535 4.03497 2.799 3.75028H4.767C3.98157 4.38145 3.34771 5.18076 2.91211 6.08935C2.47651 6.99794 2.25025 7.99266 2.25 9.00028V12.0003C1.65326 12.0003 1.08097 12.2373 0.65901 12.6593C0.237053 13.0812 0 13.6535 0 14.2503L0 15.7503C0 16.347 0.237053 16.9193 0.65901 17.3413C1.08097 17.7632 1.65326 18.0003 2.25 18.0003H3.75C4.34674 18.0003 4.91903 17.7632 5.34099 17.3413C5.76295 16.9193 6 16.347 6 15.7503V14.2503C6 13.6535 5.76295 13.0812 5.34099 12.6593C4.91903 12.2373 4.34674 12.0003 3.75 12.0003V9.00028C3.75122 8.0768 3.99601 7.16999 4.45965 6.37135C4.9233 5.57271 5.58941 4.91049 6.39075 4.45153C6.64645 4.92025 7.0237 5.31145 7.48284 5.58399C7.94198 5.85654 8.46606 6.00037 9 6.00037C9.53394 6.00037 10.058 5.85654 10.5172 5.58399C10.9763 5.31145 11.3535 4.92025 11.6093 4.45153C12.4106 4.91049 13.0767 5.57271 13.5403 6.37135C14.004 7.16999 14.2488 8.0768 14.25 9.00028V12.0003C13.6533 12.0003 13.081 12.2373 12.659 12.6593C12.2371 13.0812 12 13.6535 12 14.2503V15.7503C12 16.347 12.2371 16.9193 12.659 17.3413C13.081 17.7632 13.6533 18.0003 14.25 18.0003H15.75C16.3467 18.0003 16.919 17.7632 17.341 17.3413C17.7629 16.9193 18 16.347 18 15.7503V14.2503C18 13.6535 17.7629 13.0812 17.341 12.6593C16.919 12.2373 16.3467 12.0003 15.75 12.0003ZM4.5 14.2503V15.7503C4.5 15.9492 4.42098 16.14 4.28033 16.2806C4.13968 16.4213 3.94891 16.5003 3.75 16.5003H2.25C2.05109 16.5003 1.86032 16.4213 1.71967 16.2806C1.57902 16.14 1.5 15.9492 1.5 15.7503V14.2503C1.5 14.0514 1.57902 13.8606 1.71967 13.7199C1.86032 13.5793 2.05109 13.5003 2.25 13.5003H3.75C3.94891 13.5003 4.13968 13.5793 4.28033 13.7199C4.42098 13.8606 4.5 14.0514 4.5 14.2503ZM9 4.50028C8.70333 4.50028 8.41332 4.4123 8.16665 4.24748C7.91997 4.08266 7.72771 3.84839 7.61418 3.5743C7.50065 3.30021 7.47094 2.99861 7.52882 2.70764C7.5867 2.41667 7.72956 2.14939 7.93934 1.93962C8.14912 1.72984 8.41639 1.58698 8.70737 1.5291C8.99834 1.47122 9.29994 1.50092 9.57403 1.61446C9.84811 1.72799 10.0824 1.92025 10.2472 2.16692C10.412 2.41359 10.5 2.7036 10.5 3.00028C10.5 3.3981 10.342 3.77963 10.0607 4.06094C9.77936 4.34224 9.39782 4.50028 9 4.50028ZM16.5 15.7503C16.5 15.9492 16.421 16.14 16.2803 16.2806C16.1397 16.4213 15.9489 16.5003 15.75 16.5003H14.25C14.0511 16.5003 13.8603 16.4213 13.7197 16.2806C13.579 16.14 13.5 15.9492 13.5 15.7503V14.2503C13.5 14.0514 13.579 13.8606 13.7197 13.7199C13.8603 13.5793 14.0511 13.5003 14.25 13.5003H15.75C15.9489 13.5003 16.1397 13.5793 16.2803 13.7199C16.421 13.8606 16.5 14.0514 16.5 14.2503V15.7503Z" fill="white"/>
</g>
<defs>
<clipPath id="clip0_1_525">
<rect width="18" height="18" fill="white"/>
</clipPath>
</defs>
</svg>
