<svg id="eIamUreZBun1" xmlns="http://www.w3.org/2000/svg" xmlns:xlink="http://www.w3.org/1999/xlink" viewBox="0 0 300 350" shape-rendering="geometricPrecision" text-rendering="geometricPrecision"><style><![CDATA[#eIamUreZBun2_to {animation: eIamUreZBun2_to__to 4000ms linear infinite normal forwards}@keyframes eIamUreZBun2_to__to { 0% {transform: translate(150px,200px)} 2.5% {transform: translate(150px,200px);animation-timing-function: cubic-bezier(0.39,0.575,0.565,1)} 22.5% {transform: translate(150px,150px);animation-timing-function: cubic-bezier(0.42,0,1,1)} 45% {transform: translate(150px,200px);animation-timing-function: cubic-bezier(0.39,0.575,0.565,1)} 70% {transform: translate(150px,150px);animation-timing-function: cubic-bezier(0.47,0,0.745,0.715)} 100% {transform: translate(150px,200px)}} #eIamUreZBun6_tr {animation: eIamUreZBun6_tr__tr 4000ms linear infinite normal forwards}@keyframes eIamUreZBun6_tr__tr { 0% {transform: translate(125.79px,217.197495px) rotate(0deg)} 2.5% {transform: translate(125.79px,217.197495px) rotate(0deg);animation-timing-function: cubic-bezier(0,0,0.58,1)} 30% {transform: translate(125.79px,217.197495px) rotate(12.735289deg);animation-timing-function: cubic-bezier(0.42,0,1,1)} 62.5% {transform: translate(125.79px,217.197495px) rotate(0deg);animation-timing-function: cubic-bezier(0,0,0.58,1)} 100% {transform: translate(125.79px,217.197495px) rotate(0deg)}} #eIamUreZBun7_tr {animation: eIamUreZBun7_tr__tr 4000ms linear infinite normal forwards}@keyframes eIamUreZBun7_tr__tr { 0% {transform: translate(234.95px,209.39px) rotate(0deg)} 30% {transform: translate(234.95px,209.39px) rotate(-12.196088deg)} 67.5% {transform: translate(234.95px,209.39px) rotate(1.249593deg)} 100% {transform: translate(234.95px,209.39px) rotate(0deg)}} #eIamUreZBun137_to {animation: eIamUreZBun137_to__to 4000ms linear infinite normal forwards}@keyframes eIamUreZBun137_to__to { 0% {transform: translate(110.56971px,205.22px)} 5% {transform: translate(110.56971px,215.22px);animation-timing-function: cubic-bezier(0,0,0.58,1)} 27.5% {transform: translate(110.570549px,212.830002px)} 40% {transform: translate(110.56971px,215.22px);animation-timing-function: cubic-bezier(0,0,0.58,1)} 67.5% {transform: translate(110.570549px,212.830002px)} 87.5% {transform: translate(110.56971px,215.22px);animation-timing-function: cubic-bezier(0,0,0.58,1)} 100% {transform: translate(110.56971px,205.22px)}} #eIamUreZBun137_ts {animation: eIamUreZBun137_ts__ts 4000ms linear infinite normal forwards}@keyframes eIamUreZBun137_ts__ts { 0% {transform: scale(0.415835,0.415835)} 5% {transform: scale(0.415835,0.415835);animation-timing-function: cubic-bezier(0,0,0.58,1)} 27.5% {transform: scale(1,1)} 40% {transform: scale(0.415835,0.415835);animation-timing-function: cubic-bezier(0,0,0.58,1)} 67.5% {transform: scale(1,1)} 87.5% {transform: scale(0.415835,0.415835);animation-timing-function: cubic-bezier(0,0,0.58,1)} 100% {transform: scale(1,1)}} #eIamUreZBun137 {animation: eIamUreZBun137_c_o 4000ms linear infinite normal forwards}@keyframes eIamUreZBun137_c_o { 0% {opacity: 1} 25% {opacity: 1;animation-timing-function: cubic-bezier(0.42,0,1,1)} 40% {opacity: 0} 45% {opacity: 0} 52.5% {opacity: 1;animation-timing-function: cubic-bezier(0.42,0,1,1)} 75% {opacity: 1;animation-timing-function: cubic-bezier(0.42,0,1,1)} 87.5% {opacity: 0} 100% {opacity: 0}}]]></style><g id="eIamUreZBun2_to" transform="translate(150,200)"><g transform="translate(-150,-150)"><g style="isolation:isolate" opacity="0.01"><rect width="300" height="300" rx="0" ry="0" fill="#fff"/></g><g><g id="eIamUreZBun6_tr" transform="translate(125.79,217.197495) rotate(0)"><g transform="translate(-125.79,-217.197495)"><g id="eIamUreZBun7_tr" transform="translate(234.95,209.39) rotate(0)"><g transform="translate(-234.95,-219.39)"><g><g><g><g><g><path d="M236.79,213.81l.24,9.53c0,0,1.4,15.64,9.94,14.52c2.8-.39,5.23-2.13,8.39-3c5.06-1.45,6.86,0,10.41-2.35s1.8-10.3-.13-16.45c-.55-1.9-5.55-8.89-5.55-8.89Z" fill="#a3d8f2"/></g></g><g><g><path d="M237.39,219.5c-3.62,2.28-3.26,8.25-1.83,9.07s5.15-4.19,5.15-4.19.34-7.16-3.32-4.88Z" fill="#a3d8f2"/></g></g><g><g><path d="M263.91,211.35c4.25.54,6.45,6.1,5.5,7.45s-6.44-1.62-6.44-1.62-3.3-6.36.94-5.83Z" fill="#a3d8f2"/></g></g><g><g><path d="M261.91,228.88c0,0,3.58.05,5.85-1.46s2.66-3.47,3.22-4.57c.76-1.25,2.07-2.7,3.81-2.27s2.42,2.57.76,5.19-8,5.58-14.13,4.26.49-1.15.49-1.15Z" fill="#a3d8f2"/></g><g clip-path="url(#eIamUreZBun28)"><g><g><g><path d="M261.91,228.88c0,0,3.58.05,5.85-1.46s2.66-3.47,3.22-4.57c.76-1.25,2.07-2.7,3.81-2.27s2.42,2.57.76,5.19-8,5.58-14.13,4.26.49-1.15.49-1.15Z" fill="#019fde"/></g></g></g><clipPath id="eIamUreZBun28"><path d="M269.85,221.75c0,0,4.12.11,5.63,3.84s2.28-5.81,2.28-5.81l-4.26-2.16Z" fill="none"/></clipPath></g></g></g><g><g><g><path d="M228.63,208.52c0,0-8.95-8.48-5.36-12.66s11.7-.76,12.24-.55c0,0,5.89-5.49,13.32-5.18.43.1,4.76-7.37,9.87-7.09s3.71,12.96,3.71,12.96s2.93,7.05,6.13,7.83c.3.3-1.79,2.23-2.7,2.21.897495.07181,1.800313.038248,2.69-.1s-7.18,10.45-17.41,13.28-17.38.91-18.66.46c.60154-.469867,1.169584-.981107,1.7-1.53.18-.15-3.64.5-5.64-.73-.64-.36,2.95-4.38,1.52-7.22-.8-1.54-1.41-1.68-1.41-1.68Z" fill="#a3d8f2"/></g></g><g opacity="0.7"><g><path d="M230,204.46c0,0,.85-4.53,2.89-6-.06-.19-6-1.86-6.93-.07s4.04,6.07,4.04,6.07Z" fill="#fff"/></g></g><g opacity="0.7"><g><path d="M252.54,191.59c0,0,4.61,0,6.44,1.82.15,0,.77-6.22-1.15-6.84s-5.29,5.02-5.29,5.02Z" fill="#fff"/></g></g><g><g><g><path d="M248.64,207.07l-.58.17c-.301418.001549-.602446-.021864-.9-.07-.798146.849581-2.061598,1.069666-3.1.54-.271357-.085966-.473151-.314623-.524714-.594562s.055518-.565489.278436-.742498.525305-.216597.786278-.10294h.12v0c.522638.251918,1.151114.071124,1.46-.42.141921-.22212.386423-.357537.65-.36.114759.000357.227817.027765.33.08.15.06,1.17.29,1.49-.33.075395-.189537.223816-.340811.411884-.4198s.399994-.07906.588116-.0002c.182447.069296.329549.208761.408464.387258s.083069.381161.011536.562742v0v0c-.250632.598863-.776343,1.038819-1.41,1.18Z" fill="#4c545a"/></g></g></g><g><g><circle r="1.47" transform="translate(236.42 205.32)" fill="#4c545a"/></g></g><g><g><circle r="1.47" transform="translate(254.55 200.12)" fill="#4c545a"/></g></g><g><g><g><path d="M228.15,217.18c-.146455.044858-.305667.002142-.41-.11-.147334-.157594-.147334-.402406,0-.56c1.188491-1.013914,2.642466-1.666294,4.19-1.88.210669-.018134.399062.130828.43.34.013881.211433-.131903.400095-.34.44-1.398135.181635-2.712337.769202-3.78,1.69-.03692.035906-.081309.063223-.13.08Z" fill="#707070"/></g></g><g><g><path d="M270.15,205.07c-.049069.013642-.100931.013642-.15,0-1.394596-.19202-2.814967.023293-4.09.62-.198875.092776-.435364.007997-.53-.19-.085354-.193398-.001087-.419589.19-.51c1.412444-.660125,2.985071-.899664,4.53-.69.209172.030938.358134.219331.34.43-.025685.150167-.140789.269241-.29.3Z" fill="#707070"/></g></g><g><g><path d="M229.73,219.83c-.100813.027347-.208384.013109-.298611-.039524s-.15557-.139261-.181389-.240476c-.035595-.113167-.013152-.236605.06-.33.941013-1.248773,2.227352-2.194406,3.7-2.72.201504-.075886.426922.021353.51.22.064192.203754-.034788.423232-.23.51-1.336036.479785-2.505876,1.333734-3.37,2.46-.049036.063474-.114849.111967-.19.14Z" fill="#707070"/></g></g><g><g><path d="M270.26,208.2c-.078011.025227-.161989.025227-.24,0-1.330059-.492939-2.772975-.596996-4.16-.3-.214069.037574-.420262-.098427-.47-.31-.024089-.098143-.008093-.201839.044451-.28816s.137307-.148159.235549-.17184v0c1.522288-.320382,3.104437-.198945,4.56.35.096579.035722.174525.109109.215996.203362s.042916.2013.004004.296638c-.042519.111721-.135129.196923-.25.23Z" fill="#707070"/></g></g></g></g></g><g><g><g><path d="M242.46,193c-.312846.084403-.641261-.067173-.78-.36-.26-.62-1.25-2.44-2.31-2.68-.169671-.033514-.318556-.13427-.412745-.279322s-.125664-.322047-.087255-.490678v0c.038132-.168599.141849-.315065.28822-.407017s.32334-.121813.49178-.082983c1.91.44,3.11,3.18,3.23,3.43.140015.331421-.011207.713922-.34.86Z" fill="#804b33"/></g></g><g><path d="M235.22,189.09c-.4,1.15,2.68,2.45,4.43,1.27s-.79-2.79-1.66-2.9c-1.175679-.09954-2.286124.553899-2.77,1.63Z" fill="#6cce9d"/></g><g><g><path d="M244.11,186.23c1,.65-.53,3.61-2.65,3.79s-1.18-2.65-.53-3.31c.850979-.811215,2.120255-.999404,3.17-.47Z" fill="#6cce9d"/></g></g></g><g><path d="M250.8,218.55c4.06-1.17,8.54,2,10,7.11s-1.65,6.67-5.71,7.83-7.54,1.48-9-3.61.65-10.17,4.71-11.33Z" fill="#fff"/></g></g><g><g opacity="0.06"><path d="M258.92,214c-1.26.36-2.59.64-4,.94s-3.14.66-4.79,1.13-3,1-4.49,1.49-2.78,1-4.13,1.38c-1.381226.425567-2.807672.687362-4.25.78-1.393413.08321-2.789643-.10703-4.11-.56-14.490988-5.181296-22.341763-20.845729-17.820072-35.555891s19.815656-23.260236,34.714986-19.407374s24.13126,18.745162,20.955086,33.803265c-1.009548,4.516177-3.064616,8.732493-6,12.31-1.571936,1.857902-3.706255,3.153237-6.08,3.69Z"/></g><path d="M235.17,165.33c-10.72878,3.079564-18.573894,12.279457-19.92,23.36-1.551702,12.880148,6.014807,25.120212,18.23,29.49c2.19.77,4.51.7,7.76-.23c1.32-.38,2.65-.85,4.07-1.36s3-1.06,4.55-1.51s3.29-.82,4.86-1.15c1.39-.29,2.7-.57,3.92-.92c2.183194-.469475,4.155207-1.634436,5.62-3.32c2.813413-3.458306,4.779085-7.526632,5.74-11.88.468453-2.180824.669932-4.410527.6-6.64-.074084-2.301471-.430073-4.585176-1.06-6.8-2.033866-7.075738-6.796144-13.053249-13.23853-16.616723s-14.036786-4.420807-21.11147-2.383277m-.55-1.92c12.531173-3.595879,25.944249,1.380001,33.098378,12.278583s6.384814,25.184174-1.898378,35.251417c-1.72637,2.006858-4.049684,3.408556-6.63,4-2.67.76-5.68,1.17-8.78,2.06s-5.82,2.07-8.62,2.87c-3,.87-6,1.25-9,.2-12.183488-4.343943-20.16787-16.058039-19.757161-28.986246s9.122518-24.11189,21.557161-27.673754Z" fill="#fff"/></g><g style="isolation:isolate" opacity="0.8"><path d="M218.29,191.64v0c-.552285,0-1-.447715-1-1c0-.52.61-12.92,11-19.77.460738-.292642,1.071024-.161776,1.371266.294046s.179514,1.068194-.271266,1.375954c-9.48,6.27-10,18.06-10.06,18.18-.042561.536589-.502226.943216-1.04.92Z" fill="#fff"/></g><g><rect width="34.98" height="2.23" rx="1" ry="1" transform="matrix(.96-.28 0.28 0.96 233.786401 219.064799)" fill="#fff"/></g></g></g><g><path d="M211.21,237.53c-7,0-13.49-4.12-19.27-12.25C180.25,208.84,171,209.76,157,211.15c-9.46.94-21.24,2.11-37-2l.5-1.94c15.45,4,27,2.83,36.35,1.91c14.16-1.4,24.39-2.42,36.75,15c5.38,7.57,11.31,11.41,17.64,11.41h.18c12.33-.15,22.36-14.75,22.46-14.9l1.65,1.12c-.43.64-10.7,15.62-24.08,15.78Z" fill="#fff"/></g></g></g><g><g><g><g><path d="M24.22,76.46c-.37,7.9,2.86,19.71,8.11,27.23c5.7,8.16,1.86,12.8,5.68,18.21c4,4.5,10.62,5.54,18.33,2.73s14.48-17.91,24.43-19.71c9.77-1.76,15.17-10.33,13-17.2s-4.67-5.43-8.77-12.61c-2-3.48-1.37-2.37-3.07-7.12-1.352181-3.786582-3.656062-7.161474-6.69-9.8-3.8-3.5-11.94-10-23.31-8.59-14.51,1.16-27.01,12.09-27.71,26.86Z" fill="#4c545a"/></g></g><g clip-path="url(#eIamUreZBun96)"><g><g><g opacity="0.2"><g><g><path d="M24.22,76.46c-.37,7.9,2.86,19.71,8.11,27.23c5.7,8.16,1.86,12.8,5.68,18.21c4,4.5,10.62,5.54,18.33,2.73s14.48-17.91,24.43-19.71c9.77-1.76,15.17-10.33,13-17.2s-4.67-5.43-8.77-12.61c-2-3.48-1.37-2.37-3.07-7.12-1.352181-3.786582-3.656062-7.161474-6.69-9.8-3.8-3.5-11.94-10-23.31-8.59-14.51,1.16-27.01,12.09-27.71,26.86Z"/></g></g></g></g></g><clipPath id="eIamUreZBun96"><path d="M36.51,86.43c0,0,8.78,21.64,8.89,25.8s0,13.2,14.84,10.8s31.24-22,31-27.14-1.24-8.89-8.24-14.28-12.5-18.13-12.5-18.13L54.19,63Z" fill="none"/></clipPath></g><g><g><path d="M64.82,121.65c0,0,1.43,4.84,5.65,3.62s10.26-7.17,13.91-7.27s7.54-2.15,7.74-3.79-.21-5.06-2.61-5.89-2.54-3-8.64-.34-14.23,7.57-15.53,10.7-.52,2.97-.52,2.97Z" fill="#1d1d1d"/></g></g><g><g><path d="M57.18,106.09c0,0,1.23,14.27,6.38,16.14s12.54-8.23,19.52-11.73s6.5-1.79,6.74-3.21-3.1-3.94-7.82-3.65-6-4.88-6-4.88Z" fill="#019fde"/></g></g><g><g><g><path d="M47.23,60.83c12.266657-6.551428,27.521708-1.922988,34.08,10.34v0c6.5,12.28.51,24.92-11.77,31.45s-26.12,4.48-32.66-7.79c-6.507558-12.249168-1.878898-27.454429,10.35-34Z" fill="#fddfbc"/></g></g><g opacity="0.6"><g><path d="M69.63,102.6c2.705945-1.399584,5.189581-3.192385,7.37-5.32-1.006588.688939-2.051615,1.319962-3.13,1.89-5.605311,3.179896-12.14558,4.301186-18.49,3.17-2.899371-.617947-5.629328-1.860077-8-3.64-2.560223-1.958619-4.656728-4.458037-6.14-7.32-5.158037-9.6846-3.450868-21.594326,4.22-29.44C34.573815,69.067237,30.90733,83.312787,37,94.81c1.486646,2.876785,3.590026,5.389914,6.16,7.36c2.365657,1.78836,5.097563,3.031377,8,3.64c6.342612,1.122868,12.878165-.012981,18.47-3.21Z" fill="#ffd5a3"/></g></g><g><g><path d="M54.34,87.62v0c.499602-.268232,1.085539-.326177,1.628003-.160998s.996671.539846,1.261997,1.040998v0l1,1.91c.268232.499602.326177,1.085539.160998,1.628003s-.539846.996671-1.040998,1.261997v0c-.499602.268232-1.085539.326177-1.628003.160998s-.996671-.539846-1.261997-1.040998l-1-1.91c-.268232-.499602-.326177-1.085539-.160998-1.628003s.539846-.996671,1.040998-1.261997Z" fill="#4c545a"/></g></g><g><g><path d="M72.62,76.82v0c.499602-.268232,1.085539-.326177,1.628003-.160998s.996671.539846,1.261997,1.040998l1,1.91c.268232.499602.326177,1.085539.160998,1.628003s-.539846.996671-1.040998,1.261997v0c-1.041277.552779-2.333507.159297-2.89-.88v0l-1-1.91c-.552779-1.041277-.159297-2.333507.88-2.89Z" fill="#4c545a"/></g></g><g><g><path d="M79.67,67c0,0-10.36,2.23-17-.34s-7.61,1.17-8.94,3.29-1.48,8.43-7.73,15-10,7.93-10,7.93-7-12.37-2.12-20.92s18.29-20.8,30.81-16.45s14.98,11.49,14.98,11.49Z" fill="#4c545a"/></g></g><g><path d="M42.9,67.93c-.537218.184113-.979226.574208-1.228683,1.084376s-.285905,1.098569-.101317,1.635624v0l1.28,3.52-3.51,1.27c-.941773.490511-1.381431,1.597418-1.032881,2.600439s1.379877,1.59876,2.422881,1.399561v0l5.36-2c1.162126-.496921,1.755518-1.796321,1.37-3l-2-5.36c-.447771-.96747-1.539343-1.457824-2.56-1.15Z" fill="#019fde"/></g><g><path d="M51.09,75.69c-.858317.11787-1.56088.741626-1.779561,1.579946s.089673,1.72578.781046,2.247895s1.629339.575859,2.375823.13613s1.154187-1.28616,1.032692-2.143971v0c-.165247-1.166716-1.242597-1.980316-2.41-1.82Z" fill="#019fde"/></g><g><ellipse rx="1.91" ry="2.55" transform="matrix(.945462-.325733 0.325733 0.945462 70.97947 92.902879)" fill="#ffa8a8"/></g></g><g><g><path d="M78.54,65.38c0,0,6.77,10.25,6.13,20.3s-4.2,11.42-4.2,11.42s7.46-13.28-3.09-25.38-.45-7.72-.45-7.72Z" fill="#4c545a"/></g></g><g><g><path d="M36.13,94.84c-.850108.116525-1.50158.813934-1.56,1.67-.1,1.5,1.87,4.44,4.7,5.16c1.432681.518933,3.036479.151233,4.1-.94s-5.43-5.9-6-5.83c-.41357.054922-.833664.034595-1.24-.06Z" fill="#fed9ad"/></g></g><g><g><ellipse rx="4.27" ry="2.67" transform="matrix(.325403-.945575 0.945575 0.325403 90.887134 112.620299)" fill="#fd5b73"/></g></g></g></g><g><g><g id="eIamUreZBun137_to" transform="translate(110.56971,205.22)"><g id="eIamUreZBun137_ts" transform="scale(0.415835,0.415835)"><g id="eIamUreZBun137" transform="translate(-110.56971,-215.22)"><g><g><path d="M128.21,228.94h-35.21c0,0-11.56,12.06-10,29.9c1.798473-2.025332,3.758229-3.901481,5.86-5.61.29434-.208655.70105-.146765.92.14.098635.143136.141332.317484.12.49-.63,4-.09,16.09,20.67,36.58c20.76-20.5,21.3-32.56,20.67-36.58-.028816-.171196.012048-.346805.113486-.48769s.255018-.235339.426514-.26231c.175855-.024879.354592.018018.5.12c2.100885,1.706024,4.057515,3.582382,5.85,5.61c1.62-17.84-9.92-29.9-9.92-29.9Z" fill="#fd5b73"/></g></g><g><path d="M110.5,215.22v0c0,0-22.5,17.91,0,48.78v0c22.55-30.88,0-48.78,0-48.78Z" fill="#db5065"/></g><g><path d="M110.5,226.66v0c0,0-13.48,10.7,0,29.12v0c13.5-18.42,0-29.12,0-29.12Z" fill="#fff"/></g></g></g></g><g><g><path d="M85.19,220.43l2.56,4.94c1.095766,2.101964,3.269566,3.420119,5.64,3.42h34c2.368107.000919,4.539326-1.31801,5.63-3.42l2.56-4.94Z" fill="#949494"/><path d="M127.36,229.79h-34c-2.753184.000878-5.273346-1.545233-6.52-4l-3.32-6.4h53.64l-3.31,6.4c-1.245242,2.441946-3.748923,3.985047-6.49,4Zm-40.52-8.36l1.8,3.48c.916649,1.776033,2.751384,2.888462,4.75,2.88h34c1.995024.004703,3.824992-1.107177,4.74-2.88l1.8-3.48Z" fill="#424242"/></g><g><path d="M77.94,211.06l3.3,6.36c1.402152,2.709811,4.198918,4.411016,7.25,4.41h43.76c3.053405.000208,5.852746-1.700218,7.26-4.41l3.3-6.36Z" fill="#4d4d4d"/><path d="M132.25,222.83h-43.76c-3.439025.001381-6.586405-1.9319-8.14-5l-4.06-7.82h68.16l-4,7.82c-1.568653,3.082509-4.741352,5.017082-8.2,5ZM79.58,212.06l2.55,4.9c1.22298,2.383902,3.680713,3.879409,6.36,3.87h43.76c2.680958.006268,5.140138-1.487771,6.37-3.87l2.54-4.9Z" fill="#424242"/></g></g><g><path d="M137.18,54.84c-6.526792-16.637027-15.572441-32.1718-26.82-46.06v0C99.220795,22.525937,90.241079,37.888905,83.73,54.34c17.602406-4.090877,35.927205-3.919457,53.45.5Z" fill="#019fde"/></g><g><path d="M137.91,57.4v0l-.74-1.88c-29.53-7.58-53.45-.5-53.45-.5l-.94,2.38v0c-24.4,63.18-13.34,131.77-9.41,151.13.632879,3.119887,3.376569,5.361683,6.56,5.36h60.81c3.183431.001683,5.927121-2.240113,6.56-5.36c3.94-19.36,15.01-87.95-9.39-151.13Z" fill="#efefef"/></g><g><g><circle r="22.64" transform="translate(109.26 106.5)" fill="#fff"/></g><g><circle r="17.32" transform="translate(110.35 107.56)" fill="#7c7c7c"/><path d="M110.35,125.89c-9.44069.007828-17.345014-7.152497-18.267452-16.548017s5.438406-17.956377,14.700358-19.784745s18.398797,3.673148,21.115893,12.71439-1.87333,18.668111-10.608799,22.248372c-2.203096.90075-4.559881,1.365995-6.94,1.37Zm0-34.67c-2.120701.001034-4.220514.418958-6.18,1.23v0c-7.684713,3.181851-11.702193,11.674406-9.287893,19.633687s10.47279,12.788814,18.630183,11.165256s13.752588-9.170574,12.935366-17.44772-7.780265-14.584257-16.097656-14.581223Z" fill="#fff"/></g><g><circle r="17.16" transform="translate(109.26 106.5)" fill="#019fde"/></g><g opacity="0.08"><g><path d="M110.35,92.24c6.577913.005766,12.574376,3.76909,15.44,9.69-2.504611-9.13479-11.94021-14.509611-21.075-12.005s-14.509611,11.94021-12.005,21.075c.27482,1.034064.649932,2.038829,1.12,3-1.434774-5.162054-.373194-10.69806,2.869332-14.963198s8.292929-6.768684,13.650668-6.766802Z"/><path d="M92.93,114.41c-.490588-1.012077-.888869-2.06635-1.19-3.15-1.888517-6.309084-.21134-13.146137,4.382428-17.865071s11.383273-6.579259,17.740835-4.860989s11.285553,6.745507,12.876737,13.13606l-1.86.7c-2.713976-5.562622-8.350683-9.102039-14.54-9.13v0c-5.046564-.007897-9.805594,2.348028-12.859239,6.365879s-4.049459,9.233893-2.690761,14.094121Zm16.31-24.1c-5.790635.018797-11.12975,3.130739-14,8.16-.68223,1.176165-1.206732,2.436987-1.56,3.75.25435-.59542.541456-1.176308.86-1.74c2.345469-4.199687,6.274314-7.285865,10.91-8.57c1.605791-.4437,3.264036-.66906,4.93-.67c2.749619.005643,5.461731.638355,7.93,1.85-2.677936-1.811505-5.836907-2.779746-9.07-2.78Z" fill="#424242"/></g></g></g></g><g><path d="M69.77,168.93l11.7,38.88-38.28,22.6l10.23-48.48Z" fill="#019fde"/></g><g><path d="M110.12,241.36l-7.85-48.5l7.85-20.44l8.3,20.44" fill="#019fde"/></g><g opacity="0.1"><path d="M140.82,213.21h-15c.441412-.606918.779313-1.28272,1-2c6-19,24.07-86,6.43-151.29v0L132.79,58c-2.337253-8.393367-5.274823-16.607868-8.79-24.58-3.635705-8.242023-7.929598-16.1777-12.84-23.73c5.571025,6.927267,10.5866,14.283443,15,22c4.242421,7.451131,7.958165,15.190038,11.12,23.16v0l.74,1.89v0c24.37,63.08,13.37,131.62,9.42,151.13-.659717,3.125511-3.425666,5.356655-6.62,5.34Zm-46,0h-14.82c-1.834465-.008342-3.587497-.758611-4.86-2.08l19.7,2.07ZM106,14.44v0c1.42-1.91,2.91-3.82,4.41-5.66v0l.36.45.11.13c-1.63,1.64-3.28,3.35-4.88,5.08Z"/></g><g><path d="M149.3,168.93l-11.7,38.88l38.28,22.6-10.23-48.48Z" fill="#019fde"/></g></g><g><g opacity="0.1"><g><path d="M64.82,107.1c0-1,5.63-5.65,6.66-5.26c1.787144,1.037992,3.110583,2.719117,3.7,4.7.12.37-5.43,5.62-7.44,5.79-.98.08-2.95-4.24-2.92-5.23Z"/></g></g><g><g><path d="M75.26,100v0c.783704,1.248255.407716,2.895438-.84,3.68v0l-5,3.13v0L68,104.51c-.783704-1.248255-.407716-2.895438.84-3.68v0l2.71-1.7c1.248255-.783704,2.895438-.407716,3.68.84Z" fill="#fddfbc"/></g></g><g><g><path d="M62.82,106.28c-.07-1,6.4-6.76,7.42-6.45s4.41,3.34,4.48,4.64-5.6,7.77-7.57,8.12-4.26-5.31-4.33-6.31Z" fill="#019fde"/></g></g></g><g><g><path d="M34.08,92.34c2.700214,5.475499,6.886339,10.08093,12.08,13.29c8.59,5.22,19.51,2.12,19.51,2.12s-21,.67-24.3-13.26-7.49-5.13-7.49-5.13Z" fill="#4c545a"/></g></g></g></g></g></svg>