<svg id="e0ibzqaod19pb1" xmlns="http://www.w3.org/2000/svg" xmlns:xlink="http://www.w3.org/1999/xlink" viewBox="0 0 140 110" shape-rendering="geometricPrecision" text-rendering="geometricPrecision"><style><![CDATA[#e0ibzqaod19pb4_ts {animation: e0ibzqaod19pb4_ts__ts 4000ms linear infinite normal forwards}@keyframes e0ibzqaod19pb4_ts__ts { 0% {transform: translate(123.158501px,54.859165px) scale(1,1)} 30% {transform: translate(123.158501px,54.859165px) scale(1,1);animation-timing-function: cubic-bezier(0,0,0.580000,1)} 42.500000% {transform: translate(123.158501px,54.859165px) scale(1.200000,1.200000);animation-timing-function: cubic-bezier(0.420000,0,1,1)} 52.500000% {transform: translate(123.158501px,54.859165px) scale(1,1)} 100% {transform: translate(123.158501px,54.859165px) scale(1,1)} }#e0ibzqaod19pb32_ts {animation: e0ibzqaod19pb32_ts__ts 4000ms linear infinite normal forwards}@keyframes e0ibzqaod19pb32_ts__ts { 0% {transform: translate(96.633942px,17.967715px) scale(1,1)} 20% {transform: translate(96.633942px,17.967715px) scale(1,1);animation-timing-function: cubic-bezier(0,0,0.580000,1)} 32.500000% {transform: translate(96.633942px,17.967715px) scale(1.200000,1.200000);animation-timing-function: cubic-bezier(0.420000,0,1,1)} 42.500000% {transform: translate(96.633942px,17.967715px) scale(1,1)} 100% {transform: translate(96.633942px,17.967715px) scale(1,1)} }#e0ibzqaod19pb43_ts {animation: e0ibzqaod19pb43_ts__ts 4000ms linear infinite normal forwards}@keyframes e0ibzqaod19pb43_ts__ts { 0% {transform: translate(36.725118px,21.167713px) scale(1,1)} 10% {transform: translate(36.725118px,21.167713px) scale(1,1);animation-timing-function: cubic-bezier(0,0,0.580000,1)} 22.500000% {transform: translate(36.725118px,21.167713px) scale(1.200000,1.200000);animation-timing-function: cubic-bezier(0.420000,0,1,1)} 32.500000% {transform: translate(36.725118px,21.167713px) scale(1,1)} 100% {transform: translate(36.725118px,21.167713px) scale(1,1)} }#e0ibzqaod19pb53_ts {animation: e0ibzqaod19pb53_ts__ts 4000ms linear infinite normal forwards}@keyframes e0ibzqaod19pb53_ts__ts { 0% {transform: translate(15.856932px,59.831730px) scale(1,1);animation-timing-function: cubic-bezier(0,0,0.580000,1)} 12.500000% {transform: translate(15.856932px,59.831730px) scale(1.200000,1.200000);animation-timing-function: cubic-bezier(0.420000,0,1,1)} 22.500000% {transform: translate(15.856932px,59.831730px) scale(1,1)} 100% {transform: translate(15.856932px,59.831730px) scale(1,1)} }]]></style><g id="e0ibzqaod19pb2"><rect id="e0ibzqaod19pb3" width="140" height="110" rx="0" ry="0" fill="none" stroke="none" stroke-width="1"/><g id="e0ibzqaod19pb4_ts" transform="translate(123.158501,54.859165) scale(1,1)"><g id="e0ibzqaod19pb4" transform="translate(-123.158501,-54.859165)"><path id="e0ibzqaod19pb5" d="M112.620000,61.410000C110.490000,59.580000,107.620000,54.820000,110.560000,49.850000C113.500000,44.880000,123.560000,43.330000,127.790000,44.750000C132.020000,46.170000,137.290000,50.350000,136.940000,57.440000C136.590000,64.530000,128.220000,65.440000,124.040000,65.030000C119.860000,64.620000,116.660000,64.890000,112.620000,61.410000Z" fill="rgb(253,172,84)" stroke="none" stroke-width="1"/><path id="e0ibzqaod19pb6" d="M127.790000,44.750000C123.540000,43.330000,113.470000,44.890000,110.560000,49.850000C109.858761,51.027953,109.441092,52.352854,109.340000,53.720000C109.500000,54.720000,110.240000,56.470000,110.990000,56.870000C112.050000,57.440000,112.330000,56.090000,113.820000,58.570000C114.500000,59.700000,115.740000,59.570000,116.820000,59.350000C117.900000,59.130000,118.520000,61.200000,119.940000,61.480000C121.360000,61.760000,122.740000,60.670000,123.700000,61.550000C124.660000,62.430000,127.700000,63.330000,129.700000,61.980000C131.970000,60.420000,132.700000,61.620000,134.100000,60.280000C135.500000,58.940000,134.660000,57.440000,137,57.440000C137.290000,50.350000,132.050000,46.170000,127.790000,44.750000Z" fill="rgb(255,218,134)" stroke="none" stroke-width="1"/><path id="e0ibzqaod19pb7" d="M124.330000,63.700000C120.500000,63.700000,118.330000,63.100000,113.700000,60.510000C111.966904,59.428696,110.533063,57.929524,109.530000,56.150000C109.994434,58.179433,111.073473,60.016245,112.620000,61.410000C116.620000,64.890000,119.990000,65.030000,124.180000,65.410000C128.370000,65.790000,136.120000,64.540000,136.890000,57.980000C134.750000,62.510000,129.860000,63.700000,124.330000,63.700000Z" fill="rgb(253,172,84)" stroke="none" stroke-width="1"/><path id="e0ibzqaod19pb8" d="M127.390000,61.220000C126.990000,60.770000,127.050000,59.340000,128.250000,58.270000C129.900000,56.790000,132.570000,52.350000,133.720000,51.110000C134.870000,49.870000,135.560000,52.040000,135.720000,52.810000C135.922376,54.213174,135.699447,55.644798,135.080000,56.920000C134.012990,58.787249,132.381512,60.268183,130.420000,61.150000C128.620000,61.850000,127.830000,61.720000,127.390000,61.220000Z" fill="rgb(255,212,125)" stroke="none" stroke-width="1"/><path id="e0ibzqaod19pb9" d="M125.840000,44.920000C125,44.160000,122.400000,44.070000,119.960000,47.230000C117.520000,50.390000,115.630000,54,116.380000,57C117.130000,60,119.320000,58.670000,120.280000,56.260000C121.240000,53.850000,123.750000,49.770000,125.450000,48.460000C127.150000,47.150000,127,46,125.840000,44.920000Z" fill="rgb(255,212,125)" stroke="none" stroke-width="1"/><path id="e0ibzqaod19pb10" d="M117.160000,50.460000C118.336288,48.238757,119.821009,46.195161,121.570000,44.390000C119.752498,44.594811,117.966292,45.017859,116.250000,45.650000C114.844403,47.037050,113.812410,48.757039,113.250000,50.650000C112.250000,54.090000,112.410000,56.990000,113.920000,57.380000C115.240000,57.690000,116.110000,52.480000,117.160000,50.460000Z" fill="rgb(255,212,125)" stroke="none" stroke-width="1"/><path id="e0ibzqaod19pb11" d="M111.840000,54.460000C111.840000,54.460000,111.410000,54.680000,111.040000,53.460000C110.637152,52.357821,110.662128,51.144665,111.110000,50.060000C111.670216,48.931472,112.655841,48.071749,113.850000,47.670000L111.980000,49.670000L111.420000,51.670000Z" fill="rgb(209,128,56)" stroke="none" stroke-width="1"/><path id="e0ibzqaod19pb12" d="M130.350000,46.490000C129.620000,46.220000,127.650000,47.340000,126.050000,49.390000C124.450000,51.440000,122.260000,54.820000,120.880000,56.310000C119.500000,57.800000,119.530000,59.820000,120.740000,60.310000C121.950000,60.800000,124.100000,60.410000,126.440000,57.930000C128.780000,55.450000,131.730000,54.100000,132.040000,50.930000C132.350000,47.760000,132,47.090000,130.350000,46.490000Z" fill="rgb(255,212,125)" stroke="none" stroke-width="1"/><path id="e0ibzqaod19pb13" d="M114.200000,56.140000C114.200000,56.140000,113.470000,56.070000,113.200000,54.560000C112.930000,53.050000,113.840000,50.400000,114.800000,48.670000C115.625002,47.260334,116.864669,46.139396,118.350000,45.460000C118.933857,45.228265,119.567967,45.152447,120.190000,45.240000L118.390000,46.240000L116,48.760000L114.470000,51.670000Z" fill="rgb(209,128,56)" stroke="none" stroke-width="1"/><path id="e0ibzqaod19pb14" d="M117.630000,57.350000C117.630000,57.350000,117.040000,57.090000,117.250000,55.270000C117.592484,53.381721,118.269807,51.569883,119.250000,49.920000C119.991647,48.595282,120.959608,47.410715,122.110000,46.420000C122.832343,45.819724,123.709153,45.435037,124.640000,45.310000C125.260000,45.310000,122.560000,47.680000,122.560000,47.680000L119.440000,51.680000L118,55.430000Z" fill="rgb(209,128,56)" stroke="none" stroke-width="1"/><path id="e0ibzqaod19pb15" d="M121.200000,59C121.200000,59,120.500000,58.840000,121.200000,57.590000C122.079073,56.200224,123.040804,54.864487,124.080000,53.590000C124.980000,52.430000,126.300000,50.850000,127.440000,49.590000C128.580000,48.330000,129.270000,47.990000,129.590000,47.590000C129.910000,47.190000,130.190000,46.810000,130.400000,46.950000C130.610000,47.090000,127.460000,52.220000,127.460000,52.220000Z" fill="rgb(209,128,56)" stroke="none" stroke-width="1"/><path id="e0ibzqaod19pb16" d="M127.680000,60.780000C128.021860,59.367317,128.709080,58.061599,129.680000,56.980000C131.410000,54.920000,132.680000,54.040000,133.330000,53.110000L134.500000,51.320000L134.320000,53.790000L129.890000,58.710000Z" fill="rgb(209,128,56)" stroke="none" stroke-width="1"/><path id="e0ibzqaod19pb17" d="M111.840000,54.460000C111.840000,54.460000,112.230000,54.040000,112.340000,52.090000C112.450000,50.140000,113.980000,48.090000,113.980000,47.810000C113.980000,47.530000,112.340000,49.810000,112.340000,49.810000L111.660000,52.810000Z" fill="rgb(255,218,145)" stroke="none" stroke-width="1"/><path id="e0ibzqaod19pb18" d="M111.840000,54.460000C111.530000,54.520000,110.420000,52.460000,111.220000,50.390000C111.750732,49.198194,112.680928,48.229093,113.850000,47.650000C113.894183,47.616863,113.956863,47.625817,113.990000,47.670000C114.023137,47.714183,114.014183,47.776863,113.970000,47.810000L113.970000,47.810000C113.192557,48.660802,112.639239,49.691828,112.360000,50.810000C112,52.710000,112.070000,54.420000,111.840000,54.460000Z" fill="rgb(243,156,79)" stroke="none" stroke-width="1"/><path id="e0ibzqaod19pb19" d="M114.200000,56.140000C114.200000,56.140000,114.990000,56.380000,115.270000,55.140000C115.860382,53.001038,116.657471,50.924590,117.650000,48.940000C118.430000,47.590000,120.310000,45.680000,120.200000,45.290000L117.260000,47.910000L114.880000,52.590000Z" fill="rgb(255,226,168)" stroke="none" stroke-width="1"/><path id="e0ibzqaod19pb20" d="M114.200000,56.140000C113.620000,56.140000,112.880000,54.340000,113.870000,51.410000C114.353343,49.462636,115.485497,47.737952,117.080000,46.520000C117.921289,45.708817,119.041381,45.250760,120.210000,45.240000C120.440000,45.390000,119.020000,46.070000,117.840000,48.010000C116.707168,49.919296,115.832862,51.970553,115.240000,54.110000C115.050000,55.190000,114.910000,56.140000,114.200000,56.140000Z" fill="rgb(243,156,79)" stroke="none" stroke-width="1"/><path id="e0ibzqaod19pb21" d="M117.900000,57.400000C117.900000,57.400000,118.570000,57.400000,119.280000,55.740000C120.499410,53.381384,121.910839,51.127110,123.500000,49C123.989372,48.282493,124.590286,47.647821,125.280000,47.120000C125.606672,46.854044,125.861155,46.510148,126.020000,46.120000L124.280000,47.390000L121.280000,50.970000L119,54.920000Z" fill="rgb(255,226,168)" stroke="none" stroke-width="1"/><path id="e0ibzqaod19pb22" d="M117.750000,57.420000C117.120000,57.230000,117.270000,55.190000,118.080000,53.300000C118.890000,51.410000,120.580000,48.150000,121.810000,47.020000C122.613166,46.119185,123.699723,45.519462,124.890000,45.320000C125.550000,45.320000,126.210000,45.550000,126.020000,46.170000C125.830000,46.790000,125.020000,46.730000,123.940000,48.060000C122.219888,50.077773,120.730647,52.281447,119.500000,54.630000C118.690000,56.570000,118.220000,57.560000,117.750000,57.420000Z" fill="rgb(253,223,188)" stroke="none" stroke-width="1"/><path id="e0ibzqaod19pb23" d="M125.700000,45.490000C125.438169,45.387631,125.160948,45.330158,124.880000,45.320000C123.693312,45.521609,122.610598,46.121158,121.810000,47.020000C120.297534,48.690522,119.083215,50.608400,118.220000,52.690000C117.769952,53.810349,117.480425,54.988657,117.360000,56.190000C117.880000,55.190000,119.910000,51.810000,121.200000,49.850000C123.110000,47,124.740000,47,125.700000,45.490000Z" fill="rgb(243,156,79)" stroke="none" stroke-width="1"/><path id="e0ibzqaod19pb24" d="M121.660000,59.110000C122.160113,59.168294,122.661519,59.012059,123.040000,58.680000C123.750000,58.110000,124.430000,57.870000,124.810000,57.480000C125.190000,57.090000,128.960000,53.480000,129.810000,52.260000C130.660000,51.040000,131.510000,49.070000,130.910000,47.900000Z" fill="rgb(255,226,168)" stroke="none" stroke-width="1"/><path id="e0ibzqaod19pb25" d="M121.200000,59C120.710000,58.650000,121.340000,57.440000,122.520000,56.060000C124.039890,54.428469,125.462354,52.708824,126.780000,50.910000C127.110000,50.160000,129.570000,48.030000,129.850000,47.510000C130.130000,46.990000,130.510000,46.660000,130.750000,47.280000C131.020103,48.036617,131.020103,48.863383,130.750000,49.620000C130.184521,51.080501,129.323155,52.408299,128.220000,53.520000C126.866885,55.044771,125.417235,56.481061,123.880000,57.820000C123.140000,58.270000,122,59.590000,121.200000,59Z" fill="rgb(243,156,79)" stroke="none" stroke-width="1"/><path id="e0ibzqaod19pb26" d="M129.850000,47.540000C129.570000,48.060000,128.080000,49.210000,126.590000,50.990000C125.590000,52.230000,123.700000,54.720000,122.520000,56.090000L122.210000,56.470000C124.432603,55.422218,126.334875,53.799591,127.720000,51.770000C129.720000,49,130.260000,47.620000,130.400000,46.970000C130.220000,47,130,47.230000,129.850000,47.540000Z" fill="rgb(253,223,188)" stroke="none" stroke-width="1"/><path id="e0ibzqaod19pb27" d="M127.680000,60.780000C127.680000,60.780000,129.810000,60.950000,132.370000,58.180000C134.930000,55.410000,134.920000,54.460000,135.020000,53.890000C135.016326,53.101867,134.922380,52.316749,134.740000,51.550000L132.680000,54.850000Z" fill="rgb(255,226,168)" stroke="none" stroke-width="1"/><path id="e0ibzqaod19pb28" d="M134.620000,51.340000C134.592154,51.323923,134.557846,51.323923,134.530000,51.340000C133.957966,52.821752,133.030818,54.140362,131.830000,55.180000C130.154143,56.814801,128.752828,58.709109,127.680000,60.790000L127.820000,60.790000C130.090000,60.320000,132.890000,57.410000,133.920000,55.920000C135.240000,54,135,51.580000,134.620000,51.340000Z" fill="rgb(243,156,79)" stroke="none" stroke-width="1"/><path id="e0ibzqaod19pb29" d="M119.260000,46.190000C119.260000,46.190000,117.840000,46.050000,116.420000,47.990000C115,49.930000,113.340000,54.340000,114.500000,56.070000C114.960000,55.830000,115.080000,55.070000,115.240000,54.070000C115.832862,51.930553,116.707168,49.879296,117.840000,47.970000C118.239871,47.318860,118.720335,46.720799,119.270000,46.190000Z" fill="rgb(253,223,188)" stroke="none" stroke-width="1"/><path id="e0ibzqaod19pb30" d="M133.910000,55.880000C135.240000,53.970000,134.910000,51.580000,134.620000,51.340000C134.590957,51.329284,134.559043,51.329284,134.530000,51.340000C134.598934,53.687024,133.434208,55.898867,131.460000,57.170000C130.008103,58.158860,128.730692,59.382202,127.680000,60.790000L127.820000,60.790000C130.090000,60.280000,132.890000,57.370000,133.910000,55.880000Z" fill="rgb(253,223,188)" stroke="none" stroke-width="1"/><path id="e0ibzqaod19pb31" d="M111.790000,50.590000C111.435281,51.855615,111.435281,53.194385,111.790000,54.460000L112,54C112.071767,52.930843,112.198602,51.866097,112.380000,50.810000C112.661588,49.692737,113.214612,48.662257,113.990000,47.810000C112.877841,48.361050,112.070711,49.380969,111.790000,50.590000Z" fill="rgb(253,223,188)" stroke="none" stroke-width="1"/></g></g><g id="e0ibzqaod19pb32_ts" transform="translate(96.633942,17.967715) scale(1,1)"><g id="e0ibzqaod19pb32" transform="translate(-96.633942,-15.861364)"><g id="e0ibzqaod19pb33"><rect id="e0ibzqaod19pb34" width="22" height="38" rx="3" ry="3" transform="matrix(0.20808200000000 -0.97811100000000 0.97811100000000 0.20808200000000 75.76088308999999 22.92715973000001)" fill="rgb(1,159,223)" stroke="none" stroke-width="1"/><circle id="e0ibzqaod19pb35" r="9" transform="matrix(1 0 0 1 103.47000000000000 17.58000000000000)" fill="rgb(255,255,255)" stroke="none" stroke-width="1"/><circle id="e0ibzqaod19pb36" r="7" transform="matrix(1 0 0 1 103.47000000000000 17.58000000000000)" fill="rgb(163,216,242)" stroke="none" stroke-width="1"/><rect id="e0ibzqaod19pb37" style="isolation:isolate" width="4" height="10" rx="1" ry="1" transform="matrix(0.20808200000000 -0.97811100000000 0.97811100000000 0.20808200000000 82.99932079999999 8.11680110000000)" opacity="0.6" fill="rgb(255,255,255)" stroke="none" stroke-width="1"/><path id="e0ibzqaod19pb38" d="M87.590000,0.910000L91.510000,1.750000C92.047242,1.865022,92.391070,2.391927,92.280000,2.930000L92.070000,3.930000L92.070000,3.930000L86.200000,2.660000L86.200000,2.660000L86.410000,1.660000C86.534166,1.130875,87.058210,0.797797,87.590000,0.910000Z" fill="rgb(112,112,112)" stroke="none" stroke-width="1"/><circle id="e0ibzqaod19pb39" style="isolation:isolate" r="2.500000" transform="matrix(1 0 0 1 103.09000000000000 16.99000000000000)" opacity="0.6" fill="rgb(255,255,255)" stroke="none" stroke-width="1"/><g id="e0ibzqaod19pb40" opacity="0.6"><circle id="e0ibzqaod19pb41" r="5.590000" transform="matrix(1 0 0 1 103.02000000000000 17.41000000000000)" fill="none" stroke="none" stroke-width="1"/><circle id="e0ibzqaod19pb42" r="4.590000" transform="matrix(1 0 0 1 103.02000000000000 17.41000000000000)" fill="none" stroke="rgb(255,255,255)" stroke-width="2" stroke-linecap="round" stroke-linejoin="round" stroke-dasharray="10,90"/></g></g></g></g><g id="e0ibzqaod19pb43_ts" transform="translate(36.725118,21.167713) scale(1,1)"><g id="e0ibzqaod19pb43" transform="translate(-36.725118,-21.091918)"><g id="e0ibzqaod19pb44"><path id="e0ibzqaod19pb45" d="M40.910000,36.900000C34.740000,39.270000,27.910000,36.600000,25.770000,30.900000C24.979537,28.834218,24.877816,26.568300,25.480000,24.440000C26.093549,22.269393,27.314872,20.319440,29,18.820000L29.510000,18.360000L29.270000,17.720000L26.070000,9.400000L26.070000,9.400000L25.830000,8.690000L25.090000,8.690000C24.877510,8.698802,24.683602,8.569530,24.610000,8.370000C24.515217,8.113252,24.644466,7.828011,24.900000,7.730000L33.300000,4.500000C33.528051,4.412824,33.785713,4.503093,33.909499,4.713530C34.033286,4.923967,33.986996,5.193030,33.800000,5.350000L33.240000,5.830000L33.530000,6.510000L33.530000,6.510000L36.720000,14.840000L36.970000,15.480000L37.660000,15.480000C39.924592,15.464302,42.146026,16.099493,44.060000,17.310000C45.929376,18.491738,47.367341,20.245354,48.160000,22.310000C50.350000,28,47.090000,34.530000,40.910000,36.900000Z" fill="rgb(150,216,242)" stroke="none" stroke-width="1"/><path id="e0ibzqaod19pb46" d="M40.550000,36C46.220000,33.830000,49.220000,27.870000,47.240000,22.720000C46.514734,20.857568,45.215304,19.274435,43.530000,18.200000C41.775599,17.096551,39.742524,16.517160,37.670000,16.530000L36.290000,16.530000L35.800000,15.240000L32.600000,6.890000L32.210000,6L26.680000,8.090000L27,9L30.200000,17.320000L30.690000,18.610000L29.690000,19.530000C28.142559,20.906165,27.021688,22.696784,26.460000,24.690000C25.918051,26.617538,26.009188,28.668141,26.720000,30.540000C28.720000,35.680000,34.910000,38.100000,40.570000,35.930000M41.290000,37.800000C34.590000,40.370000,27.230000,37.440000,24.850000,31.250000C23.168566,26.546742,24.560365,21.293694,28.350000,18.040000L25.140000,9.750000L25.140000,9.670000C24.409035,9.691010,23.769446,9.181860,23.626033,8.464793C23.482620,7.747727,23.877182,7.031747,24.560000,6.770000L32.960000,3.550000C33.641081,3.291438,34.409470,3.559624,34.781744,4.185833C35.154018,4.812042,35.022528,5.615196,34.470000,6.090000L34.470000,6.170000L37.670000,14.500000C42.674444,14.368989,47.234405,17.358473,49.110000,22C51.480000,28.160000,48,35.260000,41.270000,37.840000Z" fill="rgb(150,216,242)" stroke="none" stroke-width="1"/></g><path id="e0ibzqaod19pb47" d="M26.630000,30.580000C27.350000,32.440000,31.630000,39.480000,40.630000,36.040000C48.930000,32.850000,48.330000,24.630000,47.340000,22.780000C46.730000,21.660000,45.030000,18.780000,40.040000,21.680000C37.580000,23.120000,36.490000,25.950000,31.910000,26.930000C27.330000,27.910000,26.340000,29.570000,26.630000,30.580000Z" fill="rgb(1,159,222)" stroke="none" stroke-width="1"/><circle id="e0ibzqaod19pb48" r="2.500000" transform="matrix(1 0 0 1 42.64000000000000 26.06000000000000)" fill="rgb(255,255,255)" stroke="none" stroke-width="1"/><circle id="e0ibzqaod19pb49" r="1" transform="matrix(1 0 0 1 39.84000000000000 34.10000000000000)" fill="rgb(255,255,255)" stroke="none" stroke-width="1"/><circle id="e0ibzqaod19pb50" r="1.800000" transform="matrix(1 0 0 1 34.77000000000000 32.62000000000000)" fill="rgb(255,255,255)" stroke="none" stroke-width="1"/><circle id="e0ibzqaod19pb51" r="2" transform="matrix(1 0 0 1 32.02000000000000 22.11000000000000)" fill="rgb(255,255,255)" stroke="none" stroke-width="1"/><path id="e0ibzqaod19pb52" style="isolation:isolate" d="M31.780000,6.130000L31.780000,6.130000C32.555843,5.838433,33.421689,6.226725,33.720000,7L36.580000,14.460000C36.723365,14.831293,36.713288,15.244341,36.551989,15.608201C36.390690,15.972062,36.091394,16.256900,35.720000,16.400000L35.720000,16.400000C35.348707,16.543365,34.935659,16.533288,34.571799,16.371989C34.207938,16.210690,33.923100,15.911394,33.780000,15.540000L30.920000,8.070000C30.776635,7.698707,30.786712,7.285659,30.948011,6.921799C31.109310,6.557938,31.408606,6.273100,31.780000,6.130000Z" opacity="0.4" fill="rgb(255,255,255)" stroke="none" stroke-width="1"/></g></g><g id="e0ibzqaod19pb53_ts" transform="translate(15.856932,59.831730) scale(1,1)"><g id="e0ibzqaod19pb53" transform="translate(-14.856932,-59.831730)"><circle id="e0ibzqaod19pb54" r="11.010000" transform="matrix(1 0 0 1 14.63000000000000 56.66000000000000)" fill="rgb(167,199,115)" stroke="none" stroke-width="1"/><path id="e0ibzqaod19pb55" d="M4.150000,60.590000L24.050000,62.690000C24.577895,62.745427,25.062105,63.008430,25.395973,63.421076C25.729842,63.833723,25.885982,64.362164,25.830000,64.890000L25.830000,64.890000C25.774573,65.417895,25.511570,65.902105,25.098924,66.235973C24.686277,66.569842,24.157836,66.725982,23.630000,66.670000L3.730000,64.570000C2.650820,64.429490,1.882062,63.451880,2,62.370000L2,62.370000C2.115725,61.291986,3.069330,60.502491,4.150000,60.590000Z" fill="rgb(240,166,123)" stroke="none" stroke-width="1"/><path id="e0ibzqaod19pb56" d="M3.730000,64.570000L23.630000,66.670000L23.630000,66.670000L23.320000,69.670000C23.126004,71.517632,22.205496,73.212367,20.761233,74.380906C19.316971,75.549446,17.467428,76.095935,15.620000,75.900000L9.620000,75.270000C7.772368,75.076004,6.077633,74.155496,4.909094,72.711233C3.740554,71.266971,3.194065,69.417428,3.390000,67.570000L3.700000,64.570000Z" fill="rgb(240,166,123)" stroke="none" stroke-width="1"/><path id="e0ibzqaod19pb57" d="M16,43.730000L16,43.730000C16.263947,43.757714,16.506052,43.889215,16.672987,44.095538C16.839921,44.301861,16.917991,44.566082,16.890000,44.830000L16.680000,46.830000C16.652286,47.093947,16.520785,47.336052,16.314462,47.502987C16.108139,47.669921,15.843918,47.747991,15.580000,47.720000L15.580000,47.720000C15.316053,47.692286,15.073948,47.560785,14.907013,47.354462C14.740079,47.148139,14.662009,46.883918,14.690000,46.620000L14.900000,44.620000C14.927714,44.356053,15.059215,44.113948,15.265538,43.947013C15.471861,43.780079,15.736082,43.702009,16,43.730000Z" fill="rgb(167,199,115)" stroke="none" stroke-width="1"/><path id="e0ibzqaod19pb58" d="M21.830000,45.620000L21.830000,45.620000C22.045292,45.776127,22.189526,46.011581,22.230811,46.274301C22.272096,46.537021,22.207030,46.805365,22.050000,47.020000L20.870000,48.640000C20.713873,48.855292,20.478419,48.999526,20.215699,49.040811C19.952979,49.082096,19.684635,49.017030,19.470000,48.860000L19.470000,48.860000C19.254708,48.703873,19.110474,48.468419,19.069189,48.205699C19.027904,47.942979,19.092970,47.674635,19.250000,47.460000L20.430000,45.840000C20.586127,45.624708,20.821581,45.480474,21.084301,45.439189C21.347021,45.397904,21.615365,45.462970,21.830000,45.620000Z" fill="rgb(167,199,115)" stroke="none" stroke-width="1"/><path id="e0ibzqaod19pb59" d="M11.840000,48.050000L11.840000,48.050000C11.596252,48.160752,11.318272,48.169138,11.068291,48.073281C10.818310,47.977423,10.617206,47.785329,10.510000,47.540000L9.700000,45.710000C9.592415,45.467348,9.585715,45.191878,9.681377,44.944282C9.777039,44.696687,9.967213,44.497282,10.210000,44.390000L10.210000,44.390000C10.452652,44.282415,10.728122,44.275715,10.975718,44.371377C11.223313,44.467039,11.422718,44.657213,11.530000,44.900000L12.340000,46.730000C12.565304,47.232613,12.341753,47.822787,11.840000,48.050000Z" fill="rgb(167,199,115)" stroke="none" stroke-width="1"/><path id="e0ibzqaod19pb60" d="M26.140000,49.830000L26.140000,49.830000C26.365304,50.332613,26.141753,50.922787,25.640000,51.150000L23.810000,52C23.307387,52.225304,22.717213,52.001753,22.490000,51.500000L22.490000,51.500000C22.264696,50.997387,22.488247,50.407213,22.990000,50.180000L24.820000,49.360000C25.314557,49.130692,25.901655,49.339734,26.140000,49.830000Z" fill="rgb(167,199,115)" stroke="none" stroke-width="1"/><path id="e0ibzqaod19pb61" d="M8.350000,50L8.350000,50C8.195393,50.216865,7.960663,50.363097,7.697852,50.406273C7.435041,50.449449,7.165864,50.386002,6.950000,50.230000L5.330000,49C5.114708,48.843873,4.970474,48.608419,4.929189,48.345699C4.887904,48.082979,4.952970,47.814635,5.110000,47.600000L5.110000,47.600000C5.266127,47.384708,5.501581,47.240474,5.764301,47.199189C6.027021,47.157904,6.295365,47.222970,6.510000,47.380000L8.120000,48.560000C8.348678,48.714897,8.503107,48.957476,8.546670,49.230219C8.590233,49.502962,8.519050,49.781577,8.350000,50Z" fill="rgb(167,199,115)" stroke="none" stroke-width="1"/><path id="e0ibzqaod19pb62" d="M27.870000,55L27.870000,55C27.842286,55.263947,27.710785,55.506052,27.504462,55.672987C27.298139,55.839921,27.033918,55.917991,26.770000,55.890000L24.770000,55.680000C24.506053,55.652286,24.263948,55.520785,24.097013,55.314462C23.930079,55.108139,23.852009,54.843918,23.880000,54.580000L23.880000,54.580000C23.907714,54.316053,24.039215,54.073948,24.245538,53.907013C24.451861,53.740079,24.716082,53.662009,24.980000,53.690000L26.980000,53.900000C27.243947,53.927714,27.486052,54.059215,27.652987,54.265538C27.819921,54.471861,27.897991,54.736082,27.870000,55Z" fill="rgb(167,199,115)" stroke="none" stroke-width="1"/><path id="e0ibzqaod19pb63" d="M6.310000,52.770000L6.310000,52.770000C6.282286,53.033947,6.150785,53.276052,5.944462,53.442987C5.738139,53.609921,5.473918,53.687991,5.210000,53.660000L3.210000,53.450000C2.946053,53.422286,2.703948,53.290785,2.537013,53.084462C2.370079,52.878139,2.292009,52.613918,2.320000,52.350000L2.320000,52.350000C2.347714,52.086053,2.479215,51.843948,2.685538,51.677013C2.891861,51.510079,3.156082,51.432009,3.420000,51.460000L5.420000,51.670000C5.683947,51.697714,5.926052,51.829215,6.092987,52.035538C6.259921,52.241861,6.337991,52.506082,6.310000,52.770000Z" fill="rgb(167,199,115)" stroke="none" stroke-width="1"/><path id="e0ibzqaod19pb64" d="M27.330000,59.530000L27.330000,59.530000C27.235876,59.777999,27.047074,59.978440,26.805143,60.087215C26.563212,60.195990,26.287975,60.204186,26.040000,60.110000L24.170000,59.390000C23.657507,59.189993,23.402815,58.613585,23.600000,58.100000L23.600000,58.100000C23.694124,57.852001,23.882926,57.651560,24.124857,57.542785C24.366788,57.434010,24.642025,57.425814,24.890000,57.520000L26.760000,58.240000C27.272493,58.440007,27.527185,59.016415,27.330000,59.530000Z" fill="rgb(167,199,115)" stroke="none" stroke-width="1"/><path id="e0ibzqaod19pb65" d="M5.870000,56.230000L5.870000,56.230000C5.909739,56.497176,5.839704,56.769065,5.675833,56.983793C5.511961,57.198522,5.268192,57.337824,5,57.370000L3,57.680000C2.737328,57.723221,2.468264,57.659925,2.252408,57.504133C2.036552,57.348342,1.891723,57.112914,1.850000,56.850000L1.850000,56.850000C1.766060,56.306402,2.136894,55.797064,2.680000,55.710000L4.680000,55.390000C4.950220,55.334892,5.231203,55.393825,5.456508,55.552864C5.681813,55.711903,5.831437,55.956927,5.870000,56.230000Z" fill="rgb(167,199,115)" stroke="none" stroke-width="1"/><path id="e0ibzqaod19pb66" style="isolation:isolate" d="M8.880000,65.420000L5.250000,65C5.250000,65,3.780000,71.410000,8.810000,73.230000C7.840000,71,7.220000,69.490000,8.880000,65.420000Z" opacity="0.2" fill="rgb(255,255,255)" stroke="none" stroke-width="1"/><path id="e0ibzqaod19pb67" d="M15.570000,47.710000L14.210000,60.580000" fill="none" stroke="rgb(116,116,116)" stroke-width="1" stroke-linecap="round" stroke-dasharray="1,2"/><path id="e0ibzqaod19pb68" d="M12.490000,47.930000C12.490000,47.930000,8.860000,50.850000,8.490000,54.070000C8.301339,56.220343,8.368475,58.385476,8.690000,60.520000" fill="none" stroke="rgb(116,116,116)" stroke-width="1" stroke-linecap="round" stroke-dasharray="1,2"/><path id="e0ibzqaod19pb69" d="M18.160000,48.530000C18.160000,48.530000,21.100000,52.140000,20.760000,55.360000C20.498165,57.503865,19.981169,59.608778,19.220000,61.630000" fill="none" stroke="rgb(116,116,116)" stroke-width="1" stroke-linecap="round" stroke-dasharray="1,2"/></g></g><g id="e0ibzqaod19pb70"><g id="e0ibzqaod19pb71"><g id="e0ibzqaod19pb72"><path id="e0ibzqaod19pb73" d="M45.440000,53.150000C42.190000,59.800000,40.580000,71.150000,42.300000,79.530000C44.170000,88.600000,39.150000,91.210000,40.430000,97.280000C42.200000,102.620000,46.830000,106.460000,54.500000,106.900000C62.170000,107.340000,73.500000,106.150000,82.690000,108.300000C91.880000,110.450000,99.470000,104.240000,100.210000,99.140000C100.950000,94.040000,98.150000,94.140000,97.320000,86.480000C96.920000,82.770000,97.840000,71.990000,98.140000,67.270000C98.374529,63.519624,97.637439,59.772176,96,56.390000C94,51.960000,89.460000,43.390000,79.120000,40.390000C66.290000,36,51.510000,40.730000,45.440000,53.150000Z" fill="rgb(76,84,90)" stroke="none" stroke-width="1"/></g><g id="e0ibzqaod19pb74" opacity="0.4"><g id="e0ibzqaod19pb75" clip-path="url(#e0ibzqaod19pb80)"><g id="e0ibzqaod19pb76"><g id="e0ibzqaod19pb77"><g id="e0ibzqaod19pb78"><path id="e0ibzqaod19pb79" d="M51,71C51,71,51.600000,84.610000,48.760000,91.480000C45.920000,98.350000,44.960000,104.100000,56.470000,108.670000C67.980000,113.240000,85.690000,111.200000,88.110000,110.120000C90.530000,109.040000,97.770000,102.340000,92.310000,94.990000C86.850000,87.640000,89.310000,72.800000,89.310000,72.800000Z" fill="rgb(0,0,0)" stroke="none" stroke-width="1"/></g></g></g><clipPath id="e0ibzqaod19pb80"><path id="e0ibzqaod19pb81" d="M45.440000,53.150000C42.190000,59.800000,40.580000,71.150000,42.300000,79.530000C44.170000,88.600000,39.150000,91.210000,40.430000,97.280000C42.200000,102.620000,46.830000,106.460000,54.500000,106.900000C62.170000,107.340000,73.500000,106.150000,82.690000,108.300000C91.880000,110.450000,99.470000,104.240000,100.210000,99.140000C100.950000,94.040000,98.150000,94.140000,97.320000,86.480000C96.640000,80.230000,97.890000,69.090000,98.120000,64.320000C98.350000,59.550000,93,44.150000,79.420000,40.190000C66.570000,35.810000,51.510000,40.730000,45.440000,53.150000Z" fill="none" stroke="none" stroke-width="1"/></clipPath></g></g><g id="e0ibzqaod19pb82"><path id="e0ibzqaod19pb83" d="M83.270000,99.410000L85.480000,98.240000L85.480000,98.240000L88.060000,103.100000C88.706902,104.310573,88.261430,105.816271,87.060000,106.480000L87.060000,106.480000C85.850028,107.132742,84.340048,106.686002,83.680000,105.480000L82.270000,102.830000C81.943704,102.244996,81.865821,101.553518,82.053812,100.910588C82.241803,100.267659,82.679941,99.727064,83.270000,99.410000Z" fill="rgb(253,223,188)" stroke="none" stroke-width="1"/></g><g id="e0ibzqaod19pb84"><path id="e0ibzqaod19pb85" d="M62,89L79,89C80.549339,88.902691,81.887858,90.071664,82,91.620000L84,107.380000C83.887858,108.928336,82.549339,110.097309,81,110L60,110C58.450661,110.097309,57.112142,108.928336,57,107.380000L59,91.620000C59.112142,90.071664,60.450661,88.902691,62,89Z" fill="rgb(1,159,222)" stroke="none" stroke-width="1"/></g><g id="e0ibzqaod19pb86"><path id="e0ibzqaod19pb87" d="M59.070000,89.550000C59.070000,89.550000,52.190000,98,52.730000,99.090000C53.270000,100.180000,58.310000,103.310000,59.730000,103.890000C61.150000,104.470000,61.990000,90.050000,60.970000,89.550000C60.373667,89.243838,59.666333,89.243838,59.070000,89.550000Z" fill="rgb(1,159,222)" stroke="none" stroke-width="1"/></g><g id="e0ibzqaod19pb88"><path id="e0ibzqaod19pb89" d="M82,89.550000C82,89.550000,88.880000,97.960000,88.330000,99.090000C87.780000,100.220000,82.750000,103.310000,81.390000,103.890000C80.030000,104.470000,79.130000,90.050000,80.140000,89.550000C80.726196,89.260458,81.413804,89.260458,82,89.550000Z" fill="rgb(1,159,222)" stroke="none" stroke-width="1"/></g><g id="e0ibzqaod19pb90"><ellipse id="e0ibzqaod19pb91" rx="6.500000" ry="3" transform="matrix(1 0 0 1 70.50000000000000 93)" fill="rgb(255,255,255)" stroke="none" stroke-width="1"/></g><g id="e0ibzqaod19pb92"><g id="e0ibzqaod19pb93"><path id="e0ibzqaod19pb94" d="M70,50.330000C76.243196,50.330000,82.230687,52.810100,86.645294,57.224706C91.059900,61.639313,93.540000,67.626804,93.540000,73.870000C93.540000,86.870000,83,94.670000,70,94.670000C57,94.670000,46.460000,86.870000,46.460000,73.870000C46.460000,67.626804,48.940100,61.639313,53.354706,57.224706C57.769313,52.810100,63.756804,50.330000,70,50.330000Z" fill="rgb(253,223,188)" stroke="none" stroke-width="1"/></g><g id="e0ibzqaod19pb95"><path id="e0ibzqaod19pb96" d="M70,94.670000C67.153959,94.680817,64.321311,94.280002,61.590000,93.480000C62.722524,93.603387,63.860779,93.666809,65,93.670000C71.490000,93.670000,77.400000,91.670000,81.640000,88.140000C83.766988,86.357888,85.474286,84.128156,86.640000,81.610000C87.889186,78.867271,88.520730,75.883649,88.490000,72.870000C88.493624,67.825055,86.866010,62.914152,83.850000,58.870000C82.389630,56.909507,80.635688,55.185923,78.650000,53.760000C76.642495,52.317057,74.417957,51.203101,72.060000,50.460000C84.202667,51.521931,93.524184,61.680997,93.540000,73.870000C93.570730,76.883649,92.939186,79.867271,91.690000,82.610000C90.521314,85.129210,88.814591,87.361604,86.690000,89.150000C81.943566,92.885513,76.037731,94.838790,70,94.670000Z" fill="rgb(254,217,173)" stroke="none" stroke-width="1"/></g><g id="e0ibzqaod19pb97"><path id="e0ibzqaod19pb98" d="M59.070000,72.300000L59.070000,72.300000C60.174569,72.300000,61.070000,73.195431,61.070000,74.300000L61.070000,76.300000C61.070000,77.404569,60.174569,78.300000,59.070000,78.300000L59.070000,78.300000C57.965431,78.300000,57.070000,77.404569,57.070000,76.300000L57.070000,74.300000C57.070000,73.195431,57.965431,72.300000,59.070000,72.300000Z" fill="rgb(76,84,90)" stroke="none" stroke-width="1"/></g><g id="e0ibzqaod19pb99"><path id="e0ibzqaod19pb100" d="M81.070000,72.300000L81.070000,72.300000C82.174569,72.300000,83.070000,73.195431,83.070000,74.300000L83.070000,76.300000C83.070000,77.404569,82.174569,78.300000,81.070000,78.300000L81.070000,78.300000C79.965431,78.300000,79.070000,77.404569,79.070000,76.300000L79.070000,74.300000C79.070000,73.195431,79.965431,72.300000,81.070000,72.300000Z" fill="rgb(76,84,90)" stroke="none" stroke-width="1"/></g><g id="e0ibzqaod19pb101"><path id="e0ibzqaod19pb102" d="M46.780000,69.690000C46.780000,69.690000,56.310000,67,60.620000,62C64.930000,57,67.420000,59.620000,69.440000,60.790000C71.460000,61.960000,76.440000,66.410000,82.830000,69.270000C86.353684,70.952631,90.205251,71.836989,94.110000,71.860000C98.014749,71.883011,94.440000,58.580000,86.650000,53.660000C78.860000,48.740000,62.520000,44.570000,54.090000,53.660000C45.660000,62.750000,46.780000,69.690000,46.780000,69.690000Z" fill="rgb(76,84,90)" stroke="none" stroke-width="1"/></g><g id="e0ibzqaod19pb103"><g id="e0ibzqaod19pb104"><g id="e0ibzqaod19pb105"><path id="e0ibzqaod19pb106" d="M81,62.900000C80.056793,62.796926,79.315821,62.045312,79.226207,61.100732C79.136593,60.156151,79.723004,59.278606,80.630000,59L85.850000,57.890000C86.909339,57.706796,87.923994,58.393816,88.147231,59.445447C88.370467,60.497079,87.722412,61.537052,86.680000,61.800000L81.460000,62.910000C81.306793,62.924374,81.152438,62.921018,81,62.900000Z" fill="rgb(1,159,222)" stroke="none" stroke-width="1"/></g><g id="e0ibzqaod19pb107"><path id="e0ibzqaod19pb108" d="M80.850000,62.780000C79.906276,62.776448,79.093458,62.113689,78.900000,61.190000L77.790000,56C77.610808,55.289625,77.834365,54.538128,78.372706,54.041206C78.911047,53.544284,79.678002,53.381478,80.371791,53.616848C81.065580,53.852218,81.575152,54.448089,81.700000,55.170000L82.810000,60.390000C82.938690,60.988400,82.786280,61.612783,82.396356,62.084592C82.006432,62.556400,81.421929,62.823681,80.810000,62.810000Z" fill="rgb(1,159,222)" stroke="none" stroke-width="1"/></g></g><g id="e0ibzqaod19pb109"><circle id="e0ibzqaod19pb110" r="2" transform="matrix(1 0 0 1 78 66)" fill="rgb(1,159,222)" stroke="none" stroke-width="1"/></g></g><g id="e0ibzqaod19pb111"><ellipse id="e0ibzqaod19pb112" rx="2" ry="2.500000" transform="matrix(1 0 0 1 70.70999999999999 82.26000000000001)" fill="rgb(255,147,163)" stroke="none" stroke-width="1"/></g></g><g id="e0ibzqaod19pb113"><path id="e0ibzqaod19pb114" d="M75.060000,94.300000C75.060000,94.300000,74.750000,96.300000,74.060000,96.840000C73.370000,97.380000,76.060000,97.840000,76.850000,97.610000C77.640000,97.380000,76.600000,94.010000,76.600000,94.010000Z" fill="rgb(255,255,255)" stroke="none" stroke-width="1"/></g><g id="e0ibzqaod19pb115" opacity="0.1"><path id="e0ibzqaod19pb116" d="M64.750000,89.540000C67.120000,88.160000,70.360000,88.440000,71.320000,90.110000C72.280000,91.780000,70.410000,93.620000,68,95C65.590000,96.380000,63,96.120000,62,94.450000C61,92.780000,62.370000,90.910000,64.750000,89.540000Z" fill="rgb(0,0,0)" stroke="none" stroke-width="1"/></g><g id="e0ibzqaod19pb117"><ellipse id="e0ibzqaod19pb118" rx="4.970000" ry="3.490000" transform="matrix(0.86602500000000 -0.50000000000000 0.50000000000000 0.86602500000000 67.28982225000001 92.96934425000001)" fill="rgb(255,230,199)" stroke="none" stroke-width="1"/></g><g id="e0ibzqaod19pb119" clip-path="url(#e0ibzqaod19pb129)"><g id="e0ibzqaod19pb120"><g id="e0ibzqaod19pb121"><g id="e0ibzqaod19pb122"><g id="e0ibzqaod19pb123"><g id="e0ibzqaod19pb124"><g id="e0ibzqaod19pb125" style="isolation:isolate" opacity="0.1"><path id="e0ibzqaod19pb126" d="M64.370000,89.860000L67.370000,94.860000C68.034622,95.533666,68.034622,96.616334,67.370000,97.290000L59.370000,105.120000L52.230000,98.750000L61.900000,89.520000C62.686341,88.973216,63.760636,89.121094,64.370000,89.860000Z" fill="rgb(0,0,0)" stroke="none" stroke-width="1"/></g><g id="e0ibzqaod19pb127"><path id="e0ibzqaod19pb128" d="M64.540000,90.070000L69.290000,95.070000C69.607763,95.397777,69.781267,95.839006,69.771876,96.295430C69.762484,96.751853,69.570977,97.185572,69.240000,97.500000L59.980000,106.500000L59.980000,106.500000L52.870000,99.080000L52.870000,99.080000L62.120000,90.080000C62.787509,89.413777,63.867008,89.409316,64.540000,90.070000Z" fill="rgb(1,159,222)" stroke="none" stroke-width="1"/></g></g></g></g></g></g><clipPath id="e0ibzqaod19pb129"><rect id="e0ibzqaod19pb130" width="30.010000" height="36.700000" rx="0" ry="0" transform="matrix(0.34185600000000 -0.93975200000000 0.93975200000000 0.34185600000000 42.41473704000002 95.82001832000000)" fill="none" stroke="none" stroke-width="1"/></clipPath></g></g><g id="e0ibzqaod19pb131"><path id="e0ibzqaod19pb132" d="M48.160000,79.900000C47.407021,79.646163,46.578405,79.944465,46.160000,80.620000C45.420000,81.810000,45.750000,85.100000,47.770000,86.930000C49.790000,88.760000,51.580000,87.930000,51.580000,87.930000C51.580000,87.930000,49.670000,80.670000,49.140000,80.470000C48.782461,80.338884,48.450749,80.145949,48.160000,79.900000Z" fill="rgb(253,223,188)" stroke="none" stroke-width="1"/><path id="e0ibzqaod19pb133" d="M87.220000,72.690000C87.972979,72.436163,88.801595,72.734465,89.220000,73.410000C89.950000,74.600000,89.630000,77.890000,87.600000,79.730000C85.570000,81.570000,83.800000,80.730000,83.800000,80.730000C83.800000,80.730000,85.700000,73.470000,86.230000,73.270000C86.594242,73.142161,86.930389,72.945227,87.220000,72.690000Z" fill="rgb(254,217,173)" stroke="none" stroke-width="1"/><path id="e0ibzqaod19pb134" d="M46.740000,68.490000C46.740000,68.490000,45.060000,79.850000,49.580000,88.110000C54.100000,96.370000,57.650000,96.110000,57.650000,96.110000C57.650000,96.110000,46.080000,87.830000,50.270000,73.400000C54.460000,58.970000,47.620000,66.710000,47.620000,66.710000Z" fill="rgb(76,84,90)" stroke="none" stroke-width="1"/><path id="e0ibzqaod19pb135" d="M93.350000,68.490000C93.350000,68.490000,95,79.850000,90.510000,88.110000C86.020000,96.370000,82.430000,96.110000,82.430000,96.110000C82.430000,96.110000,94,87.830000,89.820000,73.400000C85.640000,58.970000,92.470000,66.710000,92.470000,66.710000Z" fill="rgb(76,84,90)" stroke="none" stroke-width="1"/></g></g></g></svg>